<?xml version="1.0" encoding="utf-8"?>
<!-- Generator: Adobe Illustrator 20.1.0, SVG Export Plug-In . SVG Version: 6.00 Build 0)  -->
<svg version="1.1" xmlns="http://www.w3.org/2000/svg" xmlns:xlink="http://www.w3.org/1999/xlink" x="0px" y="0px"
	 viewBox="0 0 1000 1000" style="enable-background:new 0 0 1000 1000;" xml:space="preserve">
<g id="Layer_2">
	<rect x="-28.1" y="-29.9" style="fill:#FFFFFF;" width="1056.2" height="1059.8"/>
</g>
<g id="Layer_3">
	<g>
		<path d="M49.1,127.7c-2.9,0-5.8-0.2-8.7-0.5c-24.1-3-45.9-18.3-56.9-39.9c-11-21.6-10.6-48.2,1.1-69.5c9.3-17,24.7-29.4,39.6-41.3
			c4.9-3.9,9.9-8,14.6-12.1c8.6-7.5,27.7-27,20.4-46.3C56-90.4,47.5-96.7,38.5-97.4c-8.3-0.6-16.2,3.8-19,10.4
			c-1.4,3.5-1.1,8,0.9,11.6c1.7,3.2,4.4,5.2,7.5,5.7c3.9,0.7,7.5-1.9,9.3-4.8c1.9-3,2.1-6.2,0.5-8.6c-0.6-0.9-0.4-2.2,0.6-2.8
			c0.9-0.6,2.2-0.4,2.8,0.6c2.5,3.7,2.3,8.7-0.5,12.9c-3.1,4.7-8.4,7.4-13.3,6.5c-4.2-0.7-8-3.5-10.3-7.7c-2.6-4.7-3-10.4-1.1-15.1
			c3.4-8.2,13-13.6,23-12.9c10.6,0.8,20.3,8,24.1,18c8.2,21.6-12.3,42.7-21.5,50.7c-4.8,4.2-9.9,8.3-14.8,12.2
			C12.1-8.7-3,3.4-12,19.7c-11,20.1-11.4,45.3-1,65.7c10.4,20.4,31.1,34.9,53.8,37.7c23.3,2.9,46.9-6.8,60.2-24.7
			c13.7-18.5,14.8-45.2,2.7-63.6C91.2,15.9,64.6,7.4,44.4,16c-15.1,6.4-25.9,21.8-26.1,37.4C18.1,69.7,29.8,85.3,44.9,89
			c15.7,3.8,33.2-6,37.4-21.1c1.9-6.7,0.7-14.6-3.1-21c-3.5-5.8-8.6-9.8-14.4-11.1c-6.4-1.5-13.8,0.8-19.2,6.1
			c-4.9,4.8-7,10.8-5.9,16.5c1.5,7.4,8.6,13.1,15.3,12.3c3.4-0.4,6.6-3,8.3-6.6c1.4-3.1,1.3-6.2-0.3-8.5c-1.1-1.6-3-2.8-5-3
			c-1.6-0.2-3,0.1-4,1c-0.8,0.7-2.1,0.6-2.8-0.2c-0.7-0.8-0.6-2.1,0.2-2.8c1.9-1.6,4.4-2.3,7.1-1.9c3.2,0.4,6.1,2.2,7.8,4.8
			c2.4,3.5,2.6,8,0.6,12.4c-2.2,4.9-6.6,8.3-11.4,8.9c-8.7,1.1-17.7-6-19.7-15.5c-1.4-7,1.2-14.5,7-20.2c6.4-6.2,15.1-8.9,22.9-7.1
			c6.9,1.6,12.9,6.2,16.9,13c4.4,7.4,5.7,16.4,3.5,24.1C81.5,86,61.7,97.2,44,92.9c-16.8-4.1-29.9-21.4-29.6-39.5
			c0.2-17.1,12-34,28.5-41.1c22.2-9.5,50.4-0.6,64.2,20.3c13.1,19.8,11.9,48.5-2.8,68.2C91.8,117.7,70.8,127.7,49.1,127.7z"/>
	</g>
	<g>
		<path d="M175.7,136.2c-6.1,0-12.2-2-16.9-5.9c-6.1-5.1-9.6-12.6-10.2-21.8c-0.5-8,1.3-16.7,5-24.5c3.7-7.7,8.7-14.7,13.5-21.4
			c4.3-6,8.7-12.2,12.1-18.7c6.9-13.3,9.1-31.5-1.5-42.1c-5.3-5.3-13.4-8.1-21.6-7.3c-9.7,0.9-18.3,6.8-21.5,14.7
			c-3.5,8.5,0.2,19.2,7.9,22.8c3.4,1.6,7.6,1.7,11.5,0.2c3.9-1.4,7-4.2,8.6-7.7c0.5-1,1.6-1.5,2.6-1c1,0.5,1.5,1.6,1,2.6
			c-2,4.4-5.9,8-10.9,9.8c-4.9,1.8-10.2,1.7-14.6-0.4c-9.5-4.4-14.1-17.5-9.9-27.9c3.8-9.4,13.6-16.1,24.9-17.2
			c9.4-0.9,18.7,2.3,24.9,8.5c12,12.1,9.7,32.2,2.2,46.8c-3.5,6.8-8.1,13.1-12.4,19.2c-4.7,6.6-9.6,13.4-13.1,20.8
			c-6.5,13.6-7.1,32.2,4.2,41.5c6.5,5.4,16.4,6.6,24,2.8c7.6-3.8,12.7-12.3,12.3-20.8c-0.3-6.1-3.3-11.8-7.9-14.8
			c-4.9-3.1-11.6-2.9-15.6,0.6c-0.8,0.7-2.1,0.6-2.8-0.2c-0.7-0.8-0.6-2.1,0.2-2.8c5.4-4.6,14-5,20.4-0.9c5.7,3.6,9.4,10.5,9.7,17.9
			c0.4,10-5.5,20.1-14.5,24.6C183.6,135.3,179.7,136.2,175.7,136.2z"/>
	</g>
	<g>
		<path d="M19,241.7c-0.7,0-1.3,0-2,0c-17-0.8-33.4-11.6-40.8-27c-9.9-20.6-1.7-47.8,17.5-58.3c9.7-5.3,22.3-5.9,33.6-1.4
			c10.7,4.2,18.8,12.2,22.1,22c2.7,8,2.2,16.2-1.3,22.6c-3.6,6.6-10.7,11.4-18.8,13c-14.7,2.8-30.2-6.4-33.8-20
			c-1.9-7.1-0.1-15.1,4.8-21.5c4.5-5.9,10.9-9.2,17.5-9.2c0,0,0,0,0,0c6.3,0,11.8,2.9,14.5,7.5c1.6,2.8,2,6.4,1,9.6
			c-0.9,2.8-2.7,5.1-5.1,6.2c-1,0.5-2.2,0.1-2.7-0.9c-0.5-1-0.1-2.2,0.9-2.7c1.4-0.7,2.5-2,3-3.8c0.6-2.1,0.4-4.6-0.7-6.4
			c-1.9-3.4-6.3-5.5-11.1-5.5c0,0,0,0,0,0c-5.4,0-10.6,2.8-14.4,7.7c-4.1,5.4-5.7,12.1-4.1,18c3,11.5,16.7,19.5,29.2,17.1
			c7-1.3,13-5.4,16.1-11c3-5.4,3.4-12.5,1-19.4c-2.9-8.7-10.1-15.8-19.7-19.6c-10.2-4-21.5-3.5-30.2,1.2
			c-17.4,9.5-24.8,34.3-15.8,53.1c6.8,14.1,21.8,24,37.4,24.7c15.6,0.7,31.5-7.8,39.5-21.1c4.2-7.1,6.4-15,8.6-23.3
			c1.3-4.9,2.7-10.1,4.5-14.9c3.3-8.8,8.1-16.8,14.3-23.8c7.4-8.4,15.4-13.7,23.8-15.7c11.6-2.8,24.4,1.1,32.5,9.8
			c10.7,11.4,10.9,30.1,0.6,40c-5.5,5.2-14.3,7.1-22.4,4.7c-7.3-2.1-12.5-7.2-14.1-13.6c-1.2-4.7-0.1-10.1,2.8-14.3
			c2.5-3.6,6.1-5.9,10.1-6.4c4.7-0.6,9.7,2.2,12.4,6.9c2.4,4.2,2.4,8.8-0.2,12.2c-0.3,0.4-0.8,0.7-1.3,0.8c-2.4,0.3-4.9-0.7-6.4-2.7
			c-0.7-0.9-0.5-2.1,0.4-2.8c0.9-0.7,2.1-0.5,2.8,0.4c0.4,0.6,1.1,1,1.8,1.1c1-2,0.8-4.5-0.6-7c-1.6-2.8-4.8-5.4-8.5-5
			c-2.8,0.3-5.4,2-7.3,4.7c-2.2,3.2-3.1,7.4-2.2,11c1.3,5.1,5.4,9,11.4,10.8c6.8,2,14,0.5,18.5-3.8c8.7-8.3,8.3-24.7-0.7-34.4
			c-7.2-7.7-18.4-11.1-28.7-8.7c-7.6,1.8-14.9,6.7-21.7,14.5c-5.8,6.7-10.4,14.3-13.5,22.6c-1.8,4.7-3.1,9.7-4.4,14.6
			c-2.2,8.3-4.5,16.8-9,24.4C51.6,232.5,35.3,241.7,19,241.7z"/>
	</g>
	<g>
		<path d="M-19.5,378.5c-10.2,0-20.8-4-29.2-11.4c-10.1-8.9-17.3-22.5-20.8-39.3c-2.2-10.7-4.2-30.6,7.5-44.3
			c8.6-10,26.7-16.9,47.7-9.8c16.2,5.5,29.6,17.2,41.4,27.6c11.5,10.1,24.6,21.6,40,26.8c23.2,7.8,50.1-0.8,62.7-20.1
			c6.5-9.9,8.6-22.8,5.9-35.3c-2.5-11.6-8.9-21.1-17.9-26.7c-9.7-6.1-22.7-7-34.7-2.4c-11.2,4.3-19.2,12.6-22,22.6
			c-3.3,12,0.4,25.8,9.4,34.5c9,8.6,23,11.9,34.8,8c8.9-2.9,15.7-9.6,17.4-17.2c0.9-4.3,0-9.1-2.6-12.9c-2.2-3.2-5.2-5.3-8.6-5.8
			c-2.5-0.4-5.8,1-7.3,3.1c-0.8,1.1-0.9,2.2-0.3,3.2c0.5,1,0.2,2.2-0.8,2.7c-1,0.5-2.2,0.2-2.7-0.8c-1.3-2.4-1.1-5.1,0.6-7.4
			c2.4-3.4,7.2-5.4,11.2-4.7c4.4,0.7,8.4,3.4,11.2,7.5c3.2,4.7,4.4,10.7,3.2,16c-2,9.1-9.7,16.8-20.1,20.2
			c-13.2,4.3-28.8,0.7-38.8-9c-10-9.6-14.2-25-10.5-38.4c3.1-11.3,12-20.5,24.4-25.3c13.1-5.1,27.4-4.1,38.2,2.7
			c9.9,6.2,16.9,16.6,19.7,29.3c3,13.5,0.6,27.5-6.5,38.3c-10.2,15.6-29.1,24.7-48.5,24.7c-6.3,0-12.7-1-18.9-3
			c-16.2-5.4-29.6-17.2-41.4-27.6c-11.5-10.1-24.6-21.6-40-26.8c-13.9-4.7-32.6-3.8-43.4,8.6c-10.6,12.3-8.7,30.9-6.6,40.8
			c3.3,16,10.1,28.8,19.5,37.2c11.2,9.9,26.8,13.1,38.7,8c6.5-2.8,12-8.7,14.7-15.8c2.3-6.2,2.2-12.5-0.3-17.7
			C4,332.2-3,328-11.2,327.5c-8.2-0.5-15.7,2.9-19.4,8.8c-1,1.5-2,3.7-1.5,5.6c0.2,0.7,0.9,1.4,1.7,1.7c0.3,0.1,0.8,0.2,1.2-0.1
			c0.9-0.7,2.1-0.5,2.8,0.4c0.7,0.9,0.5,2.1-0.4,2.8c-1.3,1-3.1,1.3-4.8,0.7c-2-0.7-3.7-2.4-4.3-4.3c-0.8-2.7-0.2-5.7,1.9-8.9
			c4.6-7.1,13.4-11.2,23-10.6c9.7,0.6,18,5.7,21.6,13.3c3,6.2,3.2,13.7,0.5,20.9c-3,8.1-9.3,14.8-16.9,18
			C-10,377.6-14.7,378.5-19.5,378.5z"/>
	</g>
	<g>
		<path d="M26.6,696.2c-3.2,0-6.3-0.2-9.4-0.6c-16.7-2.2-30.5-10.2-39-22.5c-11.2-16.2-13.3-39.7-5.9-64.5
			c8-26.6,24.5-50.6,46.6-67.5c8.6-6.6,18.1-12.2,27.3-17.6c13.3-7.8,27.1-15.9,37.9-27.1c19.8-20.3,27.8-49.9,20.4-75.5
			c-7.8-26.9-32.7-47-59.3-47.8c-30.2-0.8-58.7,25.4-59.8,55.1c-0.5,14.5,5.7,29.4,17,40.6c11,11,25.4,16.9,39.4,16.3
			c21.3-0.9,41.6-16.3,48.2-36.6c5.9-18,0.7-39.2-12.6-51.6c-13.8-12.9-36-15.6-51.7-6.3c-16.3,9.6-23.7,31.2-16.6,48.1
			c3.5,8.3,10.8,15.2,20,18.8c8.7,3.5,18.1,3.5,25.9,0.1c8.1-3.6,14.6-11.3,17.3-20.7c2.7-9.1,1.6-18.3-3.1-25.4
			c-2.8-4.3-6.6-7.4-10.5-8.7c-6.7-2.2-12.9,1.9-16.3,6.1c-3.4,4.2-6,11.2-2.3,17.2c1.9,3.2,5.5,5.5,9.4,6.1c3,0.5,5.7-0.2,7.7-1.9
			c2.5-2.2,2.5-6.3,1.2-9.1c-0.5-1-2.2-4.2-5.6-3.7c-1.1,0.2-2.1-0.6-2.3-1.7c-0.2-1.1,0.6-2.1,1.7-2.3c4.1-0.6,7.8,1.6,9.8,6
			c1.9,4.1,2,10.2-2.2,13.9c-2.9,2.5-6.7,3.5-10.9,2.8c-5-0.8-9.6-3.9-12.2-8c-3.9-6.4-2.9-14.9,2.6-21.8c5.5-6.9,13.6-9.7,20.7-7.4
			c6.2,2.1,10.3,6.7,12.6,10.3c5.3,8,6.6,18.5,3.6,28.7c-3.1,10.5-10.4,19.2-19.6,23.3c-8.7,3.8-19.2,3.8-29,0
			c-10.2-4-18.2-11.7-22.2-21c-7.9-18.7,0.3-42.5,18.2-53.1c17.1-10.1,41.4-7.2,56.4,6.9c14.6,13.6,20.1,36.1,13.6,55.8
			c-7.1,21.8-28.9,38.4-51.9,39.4c-15.1,0.6-30.5-5.7-42.4-17.5c-12.1-12.1-18.8-28-18.2-43.6c1.2-31.8,31.6-59.9,63.9-59
			c28.3,0.8,54.8,22.1,63.1,50.7c7.8,26.9-0.6,58.1-21.4,79.4c-11.2,11.5-25.2,19.8-38.8,27.7c-9.1,5.3-18.5,10.9-26.9,17.3
			c-21.4,16.4-37.5,39.6-45.2,65.5c-7.1,23.6-5.1,45.9,5.3,61.1c7.8,11.4,20.7,18.8,36.2,20.8c19.7,2.6,41.2-3.6,56-16.3
			c8.2-7,14.7-16.1,18.4-25.6c4-10.4,4.2-20.6,0.6-29.4c-4-9.9-12.7-18.3-24.6-23.7c-14.4-6.5-30.3-6.9-42.5-1.1
			c-13.7,6.5-22.2,21.1-20.3,34.7c1,7.1,5.5,14,12,18.3c5.8,3.9,12.3,5.2,18.3,3.7c6.5-1.6,12.2-7.5,14.4-14.9
			c2-6.7,0.8-13.3-3.3-17.7c-4.2-4.5-10.8-6.2-15.7-4c-2.6,1.2-4.6,3.7-5.4,6.7c-0.7,2.6-0.3,5,1,6.8c1.6,2.3,4.8,2.9,7.2,2.4
			c2.5-0.5,4.3-2,4.8-4c0.3-1.1,1.3-1.7,2.4-1.5c1.1,0.3,1.7,1.3,1.5,2.4c-0.9,3.6-3.8,6.2-7.9,6.9c-4.5,0.9-8.9-0.7-11.3-4
			c-2-2.8-2.6-6.5-1.6-10.2c1.1-4.2,4-7.6,7.6-9.3c6.4-2.9,14.9-0.9,20.3,4.9c5,5.4,6.6,13.4,4.2,21.5c-2.6,8.9-9.2,15.6-17.2,17.6
			c-7.1,1.8-14.8,0.3-21.5-4.3c-7.4-5-12.5-12.8-13.7-21.1c-2.2-15.3,7.3-31.7,22.5-38.9c13.3-6.3,30.4-5.9,45.9,1
			c12.8,5.8,22.3,15,26.7,25.8c8.7,21.7-4.3,46.1-20.1,59.5C63,689.7,44.6,696.2,26.6,696.2z"/>
	</g>
	<g>
		<path d="M243.4,278.8c-15.6,0-31.6-6-43.5-17.2c-17.7-16.8-25.4-44.1-19.8-69.5c3.6-16.1,12.2-28.7,23.6-34.5
			c14.3-7.3,33.4-3.7,45.5,8.6c10.9,11.2,15.7,28.5,12.4,45.3c-2.2,11-9.9,21.6-19.1,26.2c-6.2,3.1-12.5,3.3-18.2,0.5
			c-8.5-4.1-12.6-13.3-15.2-20.9c-2.5-7.4-5.4-18.2-0.4-26.8c2.9-5.2,8.7-8.5,15.4-8.9c6.7-0.4,12.8,2.2,16.4,7
			c3.6,4.8,4.3,11.4,2,17.7c-2.3,6.3-7.1,10.9-12.9,12.2c-0.5,0.1-1.1,0-1.5-0.3c-3.6-2.3-5-7.1-3.3-11c0.4-1,1.6-1.5,2.6-1
			c1,0.4,1.5,1.6,1,2.6c-0.8,1.8-0.3,4.2,1.2,5.5c4.1-1.3,7.5-4.8,9.2-9.4c1.8-5,1.3-10.2-1.5-13.9c-2.8-3.7-7.6-5.7-12.9-5.4
			c-5.3,0.3-9.9,2.9-12.2,6.9c-4.1,7.3-1.6,16.9,0.7,23.6c2.4,6.9,6,15.2,13.1,18.6c5.7,2.8,11.1,1.3,14.6-0.5
			c8.1-4,15.1-13.7,17-23.4c3-15.5-1.3-31.5-11.3-41.8c-10.8-11-28-14.3-40.8-7.8c-10.3,5.3-18.2,16.8-21.5,31.8
			c-5.4,24.1,1.9,49.9,18.6,65.8c17.7,16.9,45.3,21.1,65.6,10c26.3-14.3,34.5-49.3,29-76.4c-5.8-28.4-23.1-53-41.9-77.9l-1.8-2.4
			c-17.6-23.2-35.8-47.2-43.8-75.6c-4.2-15.1-4.7-31.5-1.3-46.1c3.7-16.1,11.9-29.3,23.5-38.1c19.4-14.6,48.4-17,83.8-7.1
			c11.6,3.3,24.8,7.9,34,17.5c10.4,10.8,13.5,25.2,14.3,35.3c2.9,37.4-23.1,74.5-57.9,82.6c-17.7,4.1-38-0.1-54.2-11.3
			c-15.3-10.5-25.4-26.1-27.7-42.6c-2.5-18,4.9-37,19.7-50.9c14-13.1,31.5-18.7,48.1-15.2c20.6,4.2,37.6,21.8,40.3,41.6
			c2.9,21.1-10.9,42.7-30.7,48c-10.1,2.7-21.3,0.8-30.8-5.2c-9-5.7-15.1-14.3-16.8-23.7c-1.8-10.1,1.7-21.2,9.6-29.5
			c7.5-8,17.3-11.9,26.9-10.7c8,0.9,14.9,5.1,18.3,11.1c4.6,8.2,2,19.6-5.8,24.9c-7.8,5.3-19.4,3.5-25.3-3.8
			c-0.7-0.9-0.6-2.1,0.3-2.8c0.9-0.7,2.1-0.5,2.8,0.3c4.6,5.7,13.9,7.1,19.9,3c6-4.1,8.2-13.2,4.6-19.6c-2.8-4.9-8.5-8.3-15.3-9.1
			c-8.4-1-16.9,2.5-23.5,9.5c-7,7.4-10.1,17.1-8.5,26c1.5,8.3,7,16,15,21.1c8.5,5.4,18.8,7.1,27.6,4.8c8.7-2.3,16.3-8.2,21.6-16.6
			c5.1-8.2,7.4-18,6.2-27c-2.5-18.3-18.1-34.3-37.2-38.3c-15.3-3.1-31.5,2.1-44.6,14.3c-13.7,12.8-20.8,31-18.5,47.4
			c2.1,15.4,11.6,30,26,39.9c15.3,10.6,34.4,14.5,51.1,10.7c33-7.7,57.6-42.9,54.8-78.4c-0.7-9.5-3.6-23-13.2-32.9
			c-8.5-8.9-21.1-13.3-32.2-16.4c-23.8-6.7-57.1-11-80.3,6.4c-17.7,13.3-31.1,43.2-20.8,79.8c7.7,27.6,25.7,51.3,43.1,74.2l1.8,2.4
			c19.1,25.2,36.7,50.2,42.7,79.5c3.1,15.3,2.1,31.7-3,46c-5.5,15.7-15.2,27.7-28.1,34.7C262.1,276.7,252.8,278.8,243.4,278.8z"/>
	</g>
	<g>
		<path d="M353,181c-4.6,0-9.2-0.6-13.6-1.9c-15.4-4.5-28.2-16.1-33.5-30.4c-5.6-15-2.5-32.8,7.7-44.3
			c12.3-13.9,31.1-17.1,49.3-20.1c7.6-1.3,15.4-2.6,22.5-4.7c24.6-7.1,45.8-25.3,56.5-48.5c10.3-22.3,4-35.9,0.8-40.7
			c-6.3-9.6-19.2-14.5-31.2-12c-11.2,2.3-21.5,10.8-26.8,22.1c-5.4,11.6-5,25.1,1,34.4c6.7,10.3,20.4,14.8,30.6,10
			c5.2-2.5,9.2-7.9,10.4-14.1c1.1-5.6-0.1-10.9-3.5-14.6c-3.3-3.6-9.3-4.9-14.6-3.2c-1.9,0.6-6.3,2.6-6.9,7.5
			c-0.3,3.2,2.6,6.2,5.6,7.1c1.2,0.4,3.5,0.7,4.7-1.3c0.5-1,1.8-1.3,2.7-0.8c1,0.5,1.3,1.8,0.8,2.7c-1.8,3.2-5.4,4.5-9.4,3.2
			c-4.5-1.4-8.9-6.1-8.3-11.3c0.5-5,4.1-9.1,9.6-10.9c6.8-2.2,14.5-0.4,18.8,4.3c4.2,4.6,5.8,11.2,4.4,18c-1.5,7.5-6.3,14-12.6,17
			c-11.9,5.6-27.9,0.5-35.6-11.5c-6.9-10.6-7.4-25.3-1.3-38.3c5.9-12.5,17.2-21.8,29.6-24.3c13.6-2.8,28.2,2.9,35.4,13.8
			c3.6,5.4,10.7,20.5-0.5,44.6c-11.3,24.3-33.3,43.2-59.1,50.7c-7.4,2.1-15.3,3.5-23,4.8c-18.3,3.1-35.6,6-46.9,18.9
			c-9.2,10.4-12,26.6-7,40.2c4.9,13.1,16.7,23.8,30.9,27.9c22.1,6.4,47.4-5.2,55.1-25.4c3.9-10.3,2.5-22.7-3.7-33.1
			c-5.7-9.6-14.6-15.7-24.3-16.9c-13.5-1.7-27.5,6.4-31.7,18.3c-2.2,6.1-1.4,13.5,1.9,19.8c3.1,5.7,8,9.7,13.6,11.1
			c6.1,1.5,13-0.6,18.2-5.5c4.7-4.5,7-10.4,6-15.9c-1-5.4-5.6-11-11.3-10.7c-2.6,0.1-5.1,2.2-6.2,5.1c-0.4,1.1-1.1,3.7,0.9,5.6
			c0.8,0.8,0.8,2,0.1,2.8c-0.8,0.8-2,0.8-2.8,0.1c-2.5-2.5-3.2-6.2-1.8-9.9c1.6-4.4,5.6-7.5,9.7-7.7c6.3-0.3,13.8,4.8,15.4,14
			c1.2,6.8-1.5,14.1-7.2,19.5c-6.1,5.8-14.5,8.3-21.9,6.5c-6.7-1.6-12.6-6.4-16.2-13.1c-3.9-7.2-4.7-15.8-2.2-23
			c4.8-13.7,20.6-22.9,35.9-21c10.9,1.4,20.9,8.2,27.2,18.9c6.9,11.5,8.4,25.2,4.1,36.6C392.5,169.2,373,181,353,181z"/>
	</g>
	<g>
		<path d="M460.4,133.6c-7.5,0-15.5-3.1-22.6-8.8c-8-6.4-12.6-14.6-12.7-22.5c-0.1-8.6,5.4-16.9,13.3-20.2
			c7.9-3.3,17.7-1.3,23.7,4.8c3,3.1,4.8,7.5,4.7,11.6c-0.1,3.1-1.2,5.7-3.3,7.5c-0.8,0.7-2.1,0.7-2.8-0.2c-0.7-0.8-0.7-2.1,0.2-2.8
			c1.6-1.4,2-3.3,2-4.7c0.1-3-1.3-6.4-3.6-8.6c-4.9-5-12.8-6.6-19.3-3.9c-6.5,2.7-10.9,9.5-10.8,16.4c0.1,6.7,4.2,13.8,11.2,19.4
			c7.1,5.7,15,8.5,22.2,7.8c12.8-1.2,22-12.7,25.5-23.7c3.9-12.3,2.7-26,1.7-38.1l-3.4-40.2c-0.8-9.3-1.7-19.8,0.9-29.7
			c2.9-11.2,10.4-19.8,19.6-22.5c10.1-3,25.1,1.6,33.1,16c4.6,8.2,5.5,17.3,2.7,24.8c-3.3,8.8-12.2,14.6-20.6,13.7
			c-4.7-0.5-9.1-3.4-11.8-7.7c-2.4-3.9-3.1-8.3-1.7-12.2c0.4-1,1.5-1.6,2.5-1.2c1,0.4,1.6,1.5,1.2,2.5c-0.9,2.7-0.5,5.9,1.3,8.7
			c2,3.2,5.4,5.5,8.9,5.9c6.7,0.8,13.8-4,16.4-11.1c2.4-6.3,1.4-14.4-2.5-21.5c-6.9-12.5-19.8-16.6-28.4-14.1
			c-9.3,2.8-14.8,12-16.9,19.7c-2.4,9.2-1.6,18.9-0.8,28.3l3.4,40.2c1.1,12.5,2.3,26.7-1.8,39.7c-3.9,12.2-14.3,25.1-28.9,26.5
			C462,133.6,461.2,133.6,460.4,133.6z"/>
	</g>
	<g>
		<path d="M256.9,557.3c-1.1,0-2.2,0-3.3-0.1c-14.4-0.7-27.7-6-37.6-14.9c-20.8-18.7-25-53.3-9.1-75.5c5-6.9,11.5-12.6,17.7-18
			c4.5-3.9,9.1-7.9,13-12.3c11.2-12.4,17.5-29.9,17.3-48s-6.9-35.5-18.3-47.7s-28.4-19.9-46.5-21.2c-18.1-1.3-36,3.9-49,14.3
			c-8.2,6.6-14.3,14.5-17.5,23c-6.2,16.5-1.7,37.4,11.3,51.8c15.6,17.3,42,23.8,62.8,15.5c21.3-8.6,35.2-33.4,30.8-55.2
			c-4.5-22.4-28.5-39.3-50.4-35.5c-18.8,3.3-33.3,22.1-30.4,39.4c1.5,8.9,8.3,17,17.8,20.9c8.4,3.5,17,2.9,23.4-1.6
			c3.9-2.8,6.4-8.8,5.6-13.4c-0.5-2.5-1.8-4.1-4-4.6c-1.1-0.3-1.7-1.4-1.4-2.4c0.3-1.1,1.4-1.7,2.4-1.4c3.7,1,6.2,3.7,6.9,7.8
			c1.1,6.1-2.1,13.7-7.2,17.4c-7.4,5.3-17.6,6-27.2,2c-10.7-4.5-18.5-13.6-20.2-23.9c-3.3-19.7,12.4-40.2,33.6-44
			c24.3-4.3,50,13.8,55,38.6c4.8,24-9.8,50.2-33.2,59.7c-22.3,9-50.5,2.1-67.2-16.5c-14-15.5-18.9-38-12.1-55.9
			c3.4-9.1,9.9-17.7,18.7-24.7c29.1-23.2,75.3-19.9,100.9,7.3c25.5,27.1,26,73.4,1.1,101.1c-4.1,4.6-8.8,8.7-13.4,12.6
			c-6.1,5.3-12.4,10.8-17.1,17.3c-14.8,20.7-10.9,52.8,8.5,70.2c18.9,16.9,50.5,18.6,71.9,3.8c17.6-12.1,27.1-34,23.1-53.1
			c-4.2-20.3-24.9-35.8-44.2-33.1c-9.9,1.4-19.1,8-24.6,17.7c-5,8.8-5.9,18.6-2.5,26.8c4.2,9.8,13.9,16.3,23.2,15.3
			c4.9-0.5,9.7-3.7,12.6-8.3c2.5-3.9,3.1-8.4,1.8-12.2c-1.7-4.9-7-7.3-11.4-7.6c-4.7-0.3-8.5,1.6-10.2,5c-0.5,1-1.7,1.4-2.7,0.9
			c-1-0.5-1.4-1.7-0.9-2.7c2.4-4.8,7.8-7.6,14.1-7.2c6.9,0.4,12.9,4.6,14.9,10.3c1.8,5,1,10.7-2.2,15.6c-3.5,5.6-9.5,9.4-15.6,10.1
			c-11,1.2-22.5-6.3-27.3-17.7c-3.9-9.3-3-20.4,2.7-30.3c6.1-10.7,16.4-18.1,27.6-19.6c21.6-3,43.9,13.6,48.6,36.2
			c4.3,20.7-5.8,44.2-24.7,57.3C282.6,553.5,270,557.3,256.9,557.3z"/>
	</g>
	<g>
		<path d="M102.9,587.5c-4.2,0-8.7-0.9-13.1-2.7C79.5,580.5,70,570.3,72,558.9c1.6-9.4,10.1-15.2,17.5-17.6c6.3-2,12.9-2.3,19.4-2.6
			c1.6-0.1,3.2-0.1,4.8-0.2c31.8-2,47.5-17.2,51.7-30.8c1.8-5.8,2.1-12.6,0.8-20.6c-1.5-9.5-4.5-16.2-9.4-20.3
			c-6-5.1-15.3-6.1-22.1-2.3c-6.9,3.8-11.1,12.1-10,19.9c0.6,4.2,3.1,8.3,6.6,10.8c1.9,1.4,4.9,2.9,8.6,2.3c4-0.7,6.4-4.6,7-8
			c0.6-3.3-0.4-6-2.7-7.3c-1-0.6-1.3-1.8-0.7-2.7c0.6-1,1.8-1.3,2.7-0.7c3.7,2.2,5.5,6.6,4.6,11.5c-1,5.7-5.3,10.3-10.3,11.2
			c-3.9,0.7-8.1-0.4-11.7-3c-4.4-3.2-7.4-8.2-8.2-13.5c-1.3-9.5,3.6-19.3,12-24c8.4-4.6,19.4-3.5,26.7,2.8
			c5.6,4.8,9.1,12.3,10.8,22.8c1.3,8.7,1,16-0.9,22.4c-3.1,10.2-10.7,18.8-21.8,24.7c-9.3,5-21.2,8.2-33.4,8.9
			c-1.6,0.1-3.3,0.2-4.9,0.2c-6.2,0.3-12.5,0.6-18.3,2.4c-6,1.9-13.4,6.9-14.8,14.5c-1.2,7.1,3.6,16.7,15.4,21.5
			c8.1,3.3,16.4,3.2,22.2-0.3c3.4-2,6-5.8,6.9-9.8c0.7-3.3,0.2-6.4-1.4-8.8c-2.2-3.2-6.5-4.1-9.8-3.5c-3.3,0.6-5.6,2.5-6.2,5.1
			c-0.3,1.1-1.3,1.7-2.4,1.5c-1.1-0.3-1.7-1.3-1.5-2.4c1-4.2,4.5-7.2,9.4-8.1c5.5-1,11,1.1,13.8,5.2c2.3,3.3,3,7.6,2,11.9
			c-1.1,5.1-4.4,9.7-8.7,12.3C112,586.4,107.6,587.5,102.9,587.5z"/>
	</g>
	<g>
		<path d="M1049.1,127.7c-2.9,0-5.8-0.2-8.7-0.5c-24.1-3-45.9-18.3-56.9-39.9c-11-21.6-10.6-48.2,1.1-69.5
			c9.3-17,24.7-29.4,39.6-41.3c4.9-3.9,9.9-8,14.6-12.1c8.6-7.5,27.7-27,20.4-46.3c-3.2-8.4-11.7-14.8-20.7-15.4
			c-8.3-0.6-16.2,3.8-19,10.4c-1.4,3.5-1.1,8,0.9,11.6c1.7,3.2,4.4,5.2,7.5,5.7c3.9,0.7,7.5-1.9,9.3-4.8c1.9-3,2.1-6.2,0.5-8.6
			c-0.6-0.9-0.4-2.2,0.6-2.8c0.9-0.6,2.2-0.4,2.8,0.6c2.5,3.7,2.3,8.7-0.5,13c-3.1,4.7-8.4,7.4-13.3,6.5c-4.2-0.7-8-3.5-10.3-7.7
			c-2.6-4.7-3-10.4-1.1-15.1c3.4-8.2,13.1-13.6,23-12.9c10.6,0.8,20.3,8,24.1,18c8.2,21.6-12.3,42.7-21.5,50.7
			c-4.8,4.2-9.9,8.3-14.8,12.2C1012.1-8.7,997,3.4,988,19.7c-11,20.1-11.4,45.3-1,65.7c10.4,20.4,31.1,34.9,53.8,37.7
			c23.3,2.9,46.9-6.8,60.2-24.7c13.7-18.5,14.8-45.2,2.7-63.6c-12.5-19-39.1-27.4-59.3-18.8c-15.1,6.4-25.9,21.8-26.1,37.4
			c-0.2,16.2,11.4,31.8,26.5,35.5c15.8,3.8,33.2-6,37.4-21.1c1.9-6.7,0.7-14.6-3.1-21c-3.5-5.8-8.6-9.8-14.4-11.1
			c-6.4-1.5-13.8,0.8-19.2,6.1c-4.9,4.8-7,10.8-5.9,16.5c1.5,7.4,8.6,13.1,15.3,12.3c3.4-0.4,6.6-3,8.3-6.6c1.4-3.1,1.3-6.2-0.3-8.5
			c-1.1-1.6-3-2.8-5-3c-1.6-0.2-3,0.1-4,1c-0.8,0.7-2.1,0.6-2.8-0.2c-0.7-0.8-0.6-2.1,0.2-2.8c1.9-1.6,4.4-2.3,7.1-1.9
			c3.2,0.4,6.1,2.2,7.8,4.8c2.4,3.5,2.6,8,0.6,12.4c-2.2,4.9-6.6,8.3-11.4,8.9c-8.7,1.1-17.7-6-19.7-15.5c-1.4-7,1.2-14.5,7-20.2
			c6.4-6.2,15.1-8.9,22.9-7.1c6.9,1.6,12.9,6.2,17,13c4.4,7.4,5.7,16.4,3.5,24.1c-4.8,17-24.5,28.2-42.2,23.9
			c-16.8-4.1-29.9-21.4-29.6-39.5c0.2-17.1,12-34,28.5-41.1c22.2-9.5,50.4-0.6,64.2,20.3c13.1,19.8,11.9,48.5-2.8,68.2
			C1091.8,117.7,1070.8,127.7,1049.1,127.7z"/>
	</g>
	<g>
		<path d="M1019,241.7c-0.7,0-1.3,0-2,0c-17-0.8-33.4-11.6-40.8-27c-9.9-20.6-1.7-47.8,17.5-58.3c9.7-5.3,22.3-5.9,33.6-1.4
			c10.7,4.2,18.8,12.2,22.1,22c2.7,8,2.2,16.2-1.3,22.6c-3.6,6.6-10.7,11.4-18.8,13c-14.7,2.8-30.2-6.4-33.8-20
			c-1.9-7.1-0.1-15.1,4.8-21.5c4.5-5.9,10.9-9.2,17.5-9.2c0,0,0,0,0,0c6.3,0,11.8,2.9,14.5,7.5c1.6,2.8,2,6.4,1,9.6
			c-0.9,2.8-2.7,5.1-5.1,6.2c-1,0.5-2.2,0.1-2.7-0.9c-0.5-1-0.1-2.2,0.9-2.7c1.4-0.7,2.5-2,3-3.8c0.6-2.1,0.4-4.6-0.7-6.4
			c-1.9-3.4-6.3-5.5-11.1-5.5c0,0,0,0,0,0c-5.4,0-10.6,2.8-14.4,7.7c-4.1,5.4-5.7,12.1-4.1,18c3,11.5,16.7,19.5,29.2,17.1
			c7-1.3,13-5.4,16.1-11c3-5.4,3.4-12.5,1-19.4c-2.9-8.7-10.1-15.8-19.7-19.6c-10.2-4-21.5-3.5-30.2,1.2
			c-17.4,9.5-24.8,34.3-15.8,53.1c6.8,14.1,21.8,24,37.4,24.7c15.6,0.7,31.5-7.8,39.5-21.1c4.2-7.1,6.4-15,8.6-23.3
			c1.3-4.9,2.7-10.1,4.5-14.9c3.3-8.8,8.1-16.8,14.3-23.8c7.4-8.4,15.4-13.7,23.8-15.7c11.6-2.8,24.4,1.1,32.5,9.8
			c10.7,11.4,10.9,30.1,0.6,40c-5.5,5.2-14.3,7.1-22.4,4.7c-7.3-2.1-12.5-7.2-14.1-13.6c-1.2-4.7-0.1-10.1,2.8-14.3
			c2.5-3.6,6.1-5.9,10.1-6.4c4.7-0.6,9.7,2.2,12.4,6.9c2.4,4.2,2.4,8.8-0.2,12.2c-0.3,0.4-0.8,0.7-1.3,0.8c-2.4,0.3-4.9-0.7-6.4-2.7
			c-0.7-0.9-0.5-2.1,0.4-2.8c0.9-0.7,2.1-0.5,2.8,0.4c0.4,0.6,1.1,1,1.8,1.1c1-2,0.8-4.5-0.6-7c-1.6-2.8-4.9-5.4-8.5-5
			c-2.8,0.3-5.4,2-7.3,4.7c-2.2,3.2-3.1,7.4-2.2,11c1.3,5.1,5.4,9,11.4,10.8c6.8,2,14,0.5,18.5-3.8c8.7-8.3,8.3-24.7-0.7-34.4
			c-7.2-7.7-18.4-11.1-28.7-8.7c-7.6,1.8-14.9,6.7-21.7,14.5c-5.8,6.7-10.4,14.3-13.5,22.6c-1.8,4.7-3.1,9.7-4.4,14.6
			c-2.2,8.3-4.5,16.8-9,24.4C1051.6,232.5,1035.3,241.7,1019,241.7z"/>
	</g>
	<g>
		<path d="M980.5,378.5c-10.2,0-20.8-4-29.2-11.4c-10.1-8.9-17.3-22.5-20.8-39.3c-2.2-10.7-4.2-30.6,7.5-44.3
			c8.6-10,26.7-16.9,47.7-9.8c16.2,5.5,29.6,17.2,41.4,27.6c11.5,10.1,24.6,21.6,40,26.8c23.2,7.8,50.1-0.8,62.7-20.1
			c6.5-9.9,8.6-22.8,5.9-35.3c-2.5-11.6-8.9-21.1-17.9-26.7c-9.7-6.1-22.7-7-34.7-2.4c-11.2,4.3-19.2,12.6-22,22.6
			c-3.3,12,0.4,25.8,9.4,34.5c9,8.6,23,11.9,34.8,8c8.9-2.9,15.7-9.6,17.4-17.2c0.9-4.3,0-9.1-2.6-12.9c-2.2-3.2-5.2-5.3-8.6-5.8
			c-2.5-0.4-5.8,1-7.3,3.1c-0.8,1.1-0.9,2.2-0.3,3.2c0.5,1,0.2,2.2-0.8,2.7c-1,0.5-2.2,0.2-2.7-0.8c-1.3-2.4-1.1-5.1,0.6-7.4
			c2.4-3.4,7.2-5.4,11.2-4.7c4.4,0.7,8.4,3.4,11.2,7.5c3.2,4.7,4.4,10.7,3.2,16c-2,9.1-9.7,16.8-20.1,20.2
			c-13.2,4.3-28.8,0.7-38.8-9s-14.2-25-10.5-38.4c3.1-11.3,12-20.5,24.4-25.3c13.2-5.1,27.4-4.1,38.2,2.7
			c9.9,6.2,16.9,16.6,19.7,29.3c3,13.5,0.6,27.5-6.5,38.3c-10.2,15.6-29.1,24.7-48.5,24.7c-6.3,0-12.7-1-18.9-3
			c-16.2-5.4-29.6-17.2-41.4-27.6c-11.5-10.1-24.6-21.6-40-26.8c-13.9-4.7-32.6-3.8-43.4,8.6c-10.6,12.3-8.7,30.9-6.6,40.8
			c3.3,16,10.1,28.8,19.5,37.2c11.2,9.9,26.8,13.1,38.7,8c6.5-2.8,12-8.7,14.7-15.8c2.3-6.2,2.2-12.5-0.3-17.7
			c-3.1-6.3-10-10.5-18.3-11c-8.2-0.5-15.7,2.9-19.4,8.8c-1,1.5-2,3.7-1.5,5.6c0.2,0.7,0.9,1.4,1.7,1.7c0.3,0.1,0.8,0.2,1.2-0.1
			c0.9-0.7,2.1-0.5,2.8,0.4c0.7,0.9,0.5,2.1-0.4,2.8c-1.3,1-3.1,1.3-4.8,0.7c-2-0.7-3.7-2.4-4.3-4.3c-0.8-2.7-0.2-5.7,1.9-8.9
			c4.6-7.1,13.4-11.2,23-10.6c9.7,0.6,18,5.7,21.6,13.3c3,6.2,3.2,13.7,0.5,20.9c-3,8.1-9.3,14.8-16.9,18
			C990,377.6,985.3,378.5,980.5,378.5z"/>
	</g>
	<g>
		<path d="M1026.6,696.2c-3.2,0-6.3-0.2-9.4-0.6c-16.7-2.2-30.5-10.2-39-22.5c-11.2-16.2-13.3-39.7-5.9-64.5
			c8-26.6,24.5-50.6,46.6-67.5c8.6-6.6,18.1-12.2,27.3-17.6c13.3-7.8,27.1-15.9,37.9-27.1c19.8-20.3,27.8-49.9,20.4-75.5
			c-7.8-26.9-32.7-47-59.3-47.8c-30.2-0.8-58.7,25.4-59.8,55.1c-0.5,14.5,5.7,29.4,17,40.6c11,11,25.4,16.9,39.4,16.3
			c21.3-0.9,41.6-16.3,48.2-36.6c5.9-18,0.7-39.2-12.6-51.6c-13.8-12.9-36-15.6-51.7-6.3c-16.3,9.6-23.7,31.2-16.6,48.1
			c3.5,8.3,10.8,15.2,20,18.8c8.7,3.5,18.1,3.5,25.9,0.1c8.1-3.6,14.6-11.3,17.3-20.7c2.7-9.1,1.6-18.3-3.1-25.4
			c-2.8-4.3-6.6-7.4-10.5-8.7c-6.6-2.2-12.9,1.9-16.3,6.1c-3.4,4.2-6,11.2-2.3,17.2c1.9,3.2,5.5,5.5,9.4,6.1c3,0.5,5.7-0.2,7.6-1.9
			c2.5-2.2,2.5-6.3,1.2-9.1c-0.5-1-2.2-4.2-5.6-3.7c-1.1,0.2-2.1-0.6-2.3-1.7c-0.2-1.1,0.6-2.1,1.7-2.3c4.1-0.6,7.8,1.6,9.8,6
			c1.9,4.1,2,10.2-2.2,13.9c-2.9,2.5-6.7,3.5-10.9,2.8c-5-0.8-9.6-3.9-12.2-8c-3.9-6.4-2.9-14.9,2.6-21.8c5.5-6.9,13.6-9.7,20.7-7.4
			c6.2,2.1,10.3,6.7,12.6,10.3c5.3,8,6.6,18.5,3.6,28.7c-3.1,10.5-10.4,19.2-19.6,23.3c-8.7,3.8-19.3,3.8-29,0
			c-10.2-4-18.2-11.7-22.2-21c-7.9-18.7,0.3-42.5,18.2-53.1c17.1-10.1,41.4-7.2,56.4,6.9c14.6,13.6,20.1,36.1,13.6,55.8
			c-7.1,21.8-28.9,38.4-51.9,39.4c-15.1,0.6-30.5-5.7-42.4-17.5c-12.1-12.1-18.8-28-18.2-43.6c1.2-31.8,31.6-59.9,63.9-59
			c28.3,0.8,54.8,22.1,63.1,50.7c7.8,26.9-0.6,58.1-21.4,79.4c-11.2,11.5-25.2,19.8-38.8,27.7c-9.1,5.3-18.5,10.9-26.9,17.3
			c-21.4,16.4-37.5,39.6-45.2,65.5c-7.1,23.6-5.1,45.9,5.3,61.1c7.8,11.4,20.7,18.8,36.2,20.8c19.7,2.6,41.2-3.6,56-16.3
			c8.2-7,14.7-16.1,18.4-25.6c4-10.4,4.2-20.6,0.6-29.4c-4-9.9-12.7-18.3-24.6-23.7c-14.4-6.5-30.3-6.9-42.5-1.1
			c-13.7,6.5-22.2,21.1-20.3,34.7c1,7.1,5.5,14,12,18.3c5.8,3.9,12.3,5.2,18.3,3.7c6.5-1.6,12.2-7.5,14.4-14.9
			c2-6.7,0.8-13.3-3.3-17.7c-4.2-4.5-10.8-6.2-15.7-4c-2.6,1.2-4.6,3.7-5.4,6.7c-0.7,2.6-0.3,5,1,6.8c1.6,2.3,4.8,2.9,7.2,2.4
			c2.5-0.5,4.3-2,4.8-4c0.3-1.1,1.3-1.7,2.4-1.5c1.1,0.3,1.7,1.3,1.5,2.4c-0.9,3.6-3.8,6.2-7.9,6.9c-4.5,0.9-8.9-0.7-11.3-4
			c-2-2.8-2.6-6.5-1.6-10.2c1.1-4.2,4-7.6,7.6-9.3c6.4-2.9,14.9-0.9,20.3,4.9c5,5.4,6.6,13.4,4.2,21.5c-2.6,8.9-9.2,15.6-17.2,17.6
			c-7.1,1.8-14.8,0.3-21.5-4.3c-7.4-5-12.5-12.8-13.7-21.1c-2.2-15.3,7.3-31.7,22.5-38.9c13.3-6.3,30.4-5.9,45.9,1
			c12.9,5.8,22.3,15,26.7,25.8c8.7,21.7-4.3,46.1-20.1,59.5C1063,689.7,1044.6,696.2,1026.6,696.2z"/>
	</g>
	<g>
		<path d="M49.1,1127.7c-2.9,0-5.8-0.2-8.7-0.5c-24.1-3-45.9-18.3-56.9-39.9c-11-21.6-10.6-48.2,1.1-69.5
			c9.3-17,24.7-29.4,39.6-41.3c4.9-3.9,9.9-8,14.6-12.1c8.6-7.5,27.7-27,20.4-46.3c-3.2-8.4-11.7-14.8-20.7-15.4
			c-8.3-0.6-16.2,3.8-19,10.4c-1.4,3.5-1.1,8,0.9,11.6c1.7,3.2,4.4,5.2,7.5,5.7c3.9,0.7,7.5-1.9,9.3-4.8c1.9-3,2.1-6.2,0.5-8.6
			c-0.6-0.9-0.4-2.2,0.6-2.8c0.9-0.6,2.2-0.4,2.8,0.6c2.5,3.7,2.3,8.7-0.5,12.9c-3.1,4.7-8.4,7.4-13.3,6.5c-4.2-0.7-8-3.5-10.3-7.7
			c-2.6-4.8-3-10.4-1.1-15.1c3.4-8.2,13-13.6,23-12.9c10.6,0.8,20.3,8,24.1,18c8.2,21.6-12.3,42.7-21.5,50.7
			c-4.8,4.2-9.9,8.3-14.8,12.2C12.1,991.3-3,1003.4-12,1019.7c-11,20.1-11.4,45.3-1,65.7c10.4,20.4,31.1,34.9,53.8,37.7
			c23.3,2.9,46.9-6.8,60.2-24.7c13.7-18.5,14.8-45.2,2.7-63.6c-12.5-19-39.1-27.4-59.3-18.8c-15.1,6.4-25.9,21.8-26.1,37.4
			c-0.2,16.2,11.4,31.8,26.5,35.5c15.7,3.8,33.2-6,37.4-21.1c1.9-6.7,0.7-14.6-3.1-21c-3.5-5.8-8.6-9.8-14.4-11.1
			c-6.4-1.5-13.8,0.8-19.2,6.1c-4.9,4.8-7,10.8-5.9,16.5c1.5,7.4,8.6,13.1,15.3,12.3c3.4-0.4,6.6-3,8.3-6.6c1.4-3.1,1.3-6.2-0.3-8.5
			c-1.1-1.6-3-2.8-5-3c-1.6-0.2-3,0.1-4,1c-0.8,0.7-2.1,0.6-2.8-0.2c-0.7-0.8-0.6-2.1,0.2-2.8c1.9-1.6,4.4-2.3,7.1-1.9
			c3.2,0.4,6.1,2.2,7.8,4.8c2.4,3.5,2.6,8,0.6,12.4c-2.2,4.9-6.6,8.3-11.4,8.9c-8.7,1.1-17.7-6-19.7-15.5c-1.4-7,1.2-14.5,7-20.2
			c6.4-6.2,15.1-8.9,22.9-7.1c6.9,1.6,12.9,6.2,16.9,13c4.4,7.4,5.7,16.4,3.5,24.1c-4.8,17-24.5,28.2-42.2,23.9
			c-16.8-4.1-29.9-21.4-29.6-39.5c0.2-17.1,12-34,28.5-41.1c22.2-9.5,50.4-0.6,64.2,20.3c13.1,19.8,11.9,48.5-2.8,68.2
			C91.8,1117.7,70.8,1127.7,49.1,1127.7z"/>
	</g>
	<g>
		<path d="M175.7,1136.2c-6.1,0-12.2-2-16.9-5.9c-6.1-5.1-9.6-12.6-10.2-21.8c-0.5-8,1.3-16.7,5-24.5c3.7-7.7,8.7-14.7,13.5-21.4
			c4.3-6,8.7-12.2,12.1-18.7c6.9-13.3,9.1-31.5-1.5-42.1c-5.3-5.3-13.4-8.1-21.6-7.3c-9.7,0.9-18.3,6.8-21.5,14.7
			c-3.5,8.5,0.2,19.2,7.9,22.8c3.4,1.6,7.6,1.7,11.5,0.2c3.9-1.4,7-4.2,8.6-7.7c0.5-1,1.6-1.5,2.6-1c1,0.5,1.5,1.6,1,2.6
			c-2,4.4-5.9,8-10.9,9.8c-4.9,1.8-10.2,1.7-14.6-0.4c-9.5-4.4-14.1-17.5-9.9-27.9c3.8-9.4,13.6-16.1,24.9-17.2
			c9.5-0.9,18.7,2.3,24.9,8.5c12,12.1,9.7,32.2,2.2,46.8c-3.5,6.8-8.1,13.1-12.4,19.2c-4.7,6.6-9.6,13.4-13.1,20.8
			c-6.5,13.6-7.1,32.2,4.2,41.5c6.5,5.4,16.4,6.6,24,2.8c7.6-3.8,12.7-12.3,12.3-20.8c-0.3-6.1-3.3-11.8-7.9-14.8
			c-4.9-3.1-11.6-2.9-15.6,0.6c-0.8,0.7-2.1,0.6-2.8-0.2c-0.7-0.8-0.6-2.1,0.2-2.8c5.4-4.6,14-5,20.4-0.9c5.7,3.6,9.4,10.5,9.7,17.9
			c0.4,10-5.5,20.1-14.5,24.6C183.6,1135.3,179.7,1136.2,175.7,1136.2z"/>
	</g>
	<g>
		<path d="M243.4,1278.8c-15.6,0-31.6-6-43.5-17.2c-17.7-16.8-25.4-44.1-19.8-69.5c3.6-16.1,12.2-28.7,23.6-34.5
			c14.3-7.3,33.4-3.7,45.5,8.6c10.9,11.2,15.7,28.5,12.4,45.3c-2.2,11-9.9,21.6-19.1,26.2c-6.2,3.1-12.5,3.3-18.2,0.5
			c-8.5-4.1-12.6-13.3-15.2-20.9c-2.5-7.4-5.4-18.2-0.4-26.8c2.9-5.2,8.7-8.5,15.4-8.9c6.7-0.4,12.8,2.2,16.4,7
			c3.6,4.8,4.3,11.4,2,17.7c-2.3,6.3-7.1,10.9-12.9,12.2c-0.5,0.1-1.1,0-1.5-0.3c-3.6-2.3-5-7.1-3.3-11c0.4-1,1.6-1.5,2.6-1
			c1,0.4,1.5,1.6,1,2.6c-0.8,1.8-0.3,4.2,1.2,5.5c4.1-1.3,7.5-4.8,9.2-9.4c1.8-5,1.3-10.2-1.5-13.9c-2.8-3.7-7.6-5.7-12.9-5.4
			c-5.3,0.3-9.9,2.9-12.2,6.9c-4.1,7.3-1.6,16.9,0.7,23.6c2.4,6.9,6,15.2,13.1,18.6c5.7,2.8,11.1,1.3,14.6-0.5
			c8.1-4,15.1-13.7,17-23.4c3-15.5-1.3-31.5-11.3-41.8c-10.8-11-28-14.3-40.8-7.8c-10.3,5.3-18.2,16.8-21.5,31.8
			c-5.4,24.1,1.9,49.9,18.6,65.8c17.7,16.9,45.3,21.1,65.6,10c26.3-14.3,34.5-49.3,29-76.4c-5.8-28.4-23.1-53-41.9-77.9l-1.8-2.4
			c-17.6-23.2-35.8-47.2-43.8-75.6c-4.2-15.1-4.7-31.5-1.3-46.1c3.7-16.1,11.9-29.3,23.5-38.1c19.4-14.6,48.4-17,83.8-7.1
			c11.6,3.3,24.8,7.9,34,17.5c10.4,10.8,13.5,25.2,14.3,35.3c2.9,37.4-23.1,74.5-57.9,82.6c-17.7,4.1-38-0.1-54.2-11.3
			c-15.3-10.5-25.4-26.1-27.7-42.6c-2.5-18,4.9-37,19.7-50.9c14-13.1,31.5-18.7,48.1-15.2c20.6,4.2,37.6,21.8,40.3,41.6
			c2.9,21.1-10.9,42.7-30.7,48c-10.1,2.7-21.3,0.8-30.8-5.2c-9-5.7-15.1-14.3-16.8-23.7c-1.8-10.1,1.7-21.2,9.6-29.5
			c7.5-8,17.3-11.9,26.9-10.7c8,0.9,14.9,5.1,18.3,11.1c4.6,8.2,2,19.6-5.8,24.9c-7.8,5.3-19.4,3.5-25.3-3.8
			c-0.7-0.9-0.5-2.1,0.3-2.8c0.9-0.7,2.1-0.6,2.8,0.3c4.6,5.7,13.9,7.1,19.9,3c6-4.1,8.2-13.2,4.6-19.6c-2.8-4.9-8.5-8.3-15.3-9.1
			c-8.4-1-16.9,2.5-23.5,9.5c-7,7.4-10.1,17.1-8.5,26c1.5,8.3,7,16,15,21.1c8.5,5.4,18.8,7.1,27.6,4.8c8.7-2.3,16.3-8.2,21.6-16.6
			c5.1-8.2,7.4-18,6.2-27c-2.5-18.3-18.1-34.3-37.2-38.3c-15.3-3.1-31.5,2.1-44.6,14.3c-13.7,12.8-20.8,31-18.5,47.4
			c2.1,15.4,11.6,30,26,39.9c15.3,10.6,34.4,14.5,51.1,10.7c33-7.7,57.6-42.9,54.8-78.4c-0.7-9.5-3.6-23-13.2-32.9
			c-8.5-8.9-21.1-13.3-32.2-16.4c-23.8-6.7-57.1-11-80.3,6.4c-17.7,13.3-31.1,43.2-20.8,79.8c7.7,27.6,25.7,51.3,43.1,74.2l1.8,2.4
			c19.1,25.2,36.7,50.2,42.7,79.5c3.1,15.3,2.1,31.7-3,46c-5.5,15.7-15.2,27.7-28.1,34.7C262.1,1276.7,252.8,1278.8,243.4,1278.8z"
			/>
	</g>
	<g>
		<path d="M353,1181c-4.6,0-9.2-0.6-13.6-1.9c-15.4-4.5-28.2-16.1-33.5-30.4c-5.6-15-2.5-32.8,7.7-44.3
			c12.3-13.9,31.1-17.1,49.3-20.1c7.6-1.3,15.4-2.6,22.5-4.7c24.6-7.1,45.8-25.2,56.5-48.5c10.3-22.3,4-35.9,0.8-40.7
			c-6.3-9.6-19.2-14.5-31.2-12c-11.2,2.3-21.5,10.8-26.8,22.1c-5.4,11.6-5,25.1,1,34.4c6.7,10.3,20.4,14.8,30.6,10
			c5.2-2.5,9.2-7.9,10.4-14.1c1.1-5.6-0.1-10.9-3.5-14.6c-3.3-3.6-9.3-4.9-14.6-3.2c-1.9,0.6-6.3,2.6-6.9,7.5
			c-0.3,3.2,2.6,6.2,5.6,7.1c1.2,0.4,3.5,0.7,4.7-1.3c0.5-1,1.8-1.3,2.7-0.8c1,0.5,1.3,1.8,0.8,2.7c-1.8,3.2-5.4,4.5-9.4,3.2
			c-4.5-1.4-8.9-6.1-8.3-11.3c0.5-5,4.1-9.1,9.6-10.9c6.8-2.2,14.5-0.4,18.8,4.3c4.2,4.6,5.8,11.2,4.4,18c-1.5,7.5-6.3,14-12.6,17
			c-11.9,5.6-27.9,0.5-35.6-11.5c-6.9-10.6-7.4-25.3-1.3-38.3c5.9-12.5,17.2-21.8,29.6-24.3c13.6-2.8,28.2,2.9,35.4,13.8
			c3.6,5.4,10.7,20.5-0.5,44.6c-11.3,24.3-33.3,43.2-59.1,50.7c-7.4,2.1-15.3,3.5-23,4.8c-18.3,3.1-35.6,6-46.9,18.8
			c-9.2,10.4-12,26.6-7,40.2c4.9,13.1,16.7,23.8,30.9,27.9c22.1,6.4,47.4-5.2,55.1-25.4c3.9-10.3,2.5-22.7-3.7-33.1
			c-5.7-9.6-14.6-15.7-24.3-16.9c-13.5-1.7-27.5,6.4-31.7,18.3c-2.2,6.1-1.4,13.5,1.9,19.8c3.1,5.7,8,9.7,13.6,11.1
			c6.1,1.5,13-0.6,18.2-5.5c4.7-4.5,7-10.4,6-15.9c-1-5.4-5.5-11-11.3-10.7c-2.6,0.1-5.1,2.2-6.2,5.1c-0.4,1.1-1.1,3.7,0.9,5.6
			c0.8,0.8,0.8,2,0.1,2.8c-0.8,0.8-2,0.8-2.8,0.1c-2.5-2.5-3.2-6.2-1.8-9.9c1.6-4.4,5.6-7.5,9.7-7.7c6.3-0.3,13.8,4.8,15.4,14
			c1.2,6.8-1.5,14.1-7.2,19.5c-6.1,5.8-14.5,8.3-21.9,6.5c-6.7-1.6-12.6-6.4-16.2-13.1c-3.9-7.2-4.7-15.8-2.2-23
			c4.8-13.7,20.6-22.9,35.9-21c10.9,1.4,20.9,8.2,27.2,18.9c6.9,11.5,8.4,25.2,4.1,36.6C392.5,1169.2,373,1181,353,1181z"/>
	</g>
	<g>
		<path d="M460.4,1133.6c-7.5,0-15.5-3.1-22.6-8.8c-8-6.4-12.6-14.6-12.7-22.5c-0.1-8.6,5.4-16.9,13.3-20.2
			c7.9-3.3,17.7-1.3,23.7,4.8c3,3.1,4.8,7.5,4.7,11.6c-0.1,3.1-1.2,5.7-3.3,7.5c-0.8,0.7-2.1,0.7-2.8-0.2c-0.7-0.8-0.7-2.1,0.2-2.8
			c1.6-1.4,2-3.3,2-4.7c0.1-3-1.3-6.4-3.6-8.6c-4.9-5-12.8-6.6-19.3-3.9c-6.5,2.7-10.9,9.5-10.8,16.4c0.1,6.7,4.2,13.8,11.2,19.4
			c7.1,5.7,15,8.5,22.2,7.8c12.8-1.2,22-12.7,25.5-23.7c3.9-12.3,2.7-26,1.7-38.1l-3.4-40.2c-0.8-9.3-1.7-19.8,0.9-29.7
			c2.9-11.2,10.4-19.8,19.6-22.5c10.1-3,25.1,1.6,33.1,16c4.6,8.2,5.5,17.3,2.7,24.8c-3.3,8.8-12.2,14.6-20.6,13.7
			c-4.7-0.5-9.1-3.4-11.8-7.7c-2.4-3.9-3.1-8.3-1.7-12.2c0.4-1,1.5-1.6,2.5-1.2c1,0.4,1.6,1.5,1.2,2.5c-0.9,2.7-0.5,5.9,1.3,8.7
			c2,3.2,5.4,5.5,8.9,5.9c6.7,0.8,13.8-4,16.4-11.1c2.4-6.3,1.4-14.4-2.5-21.5c-6.9-12.5-19.8-16.6-28.4-14.1
			c-9.3,2.8-14.8,12-16.9,19.7c-2.4,9.2-1.6,18.9-0.8,28.3l3.4,40.2c1.1,12.5,2.3,26.7-1.8,39.7c-3.9,12.2-14.3,25.1-28.9,26.5
			C462,1133.6,461.2,1133.6,460.4,1133.6z"/>
	</g>
	<g>
		<path d="M1049.1,1127.7c-2.9,0-5.8-0.2-8.7-0.5c-24.1-3-45.9-18.3-56.9-39.9c-11-21.6-10.6-48.2,1.1-69.5
			c9.3-17,24.7-29.4,39.6-41.3c4.9-3.9,9.9-8,14.6-12.1c8.6-7.5,27.7-27,20.4-46.3c-3.2-8.4-11.7-14.8-20.7-15.4
			c-8.3-0.6-16.2,3.8-19,10.4c-1.4,3.5-1.1,8,0.9,11.6c1.7,3.2,4.4,5.2,7.5,5.7c3.9,0.7,7.5-1.9,9.3-4.8c1.9-3,2.1-6.2,0.5-8.6
			c-0.6-0.9-0.4-2.2,0.6-2.8c0.9-0.6,2.2-0.4,2.8,0.6c2.5,3.7,2.3,8.7-0.5,13c-3.1,4.7-8.4,7.4-13.3,6.5c-4.2-0.7-8-3.5-10.3-7.7
			c-2.6-4.7-3-10.4-1.1-15.1c3.4-8.2,13.1-13.6,23-12.9c10.6,0.8,20.3,8,24.1,18c8.2,21.6-12.3,42.7-21.5,50.7
			c-4.8,4.2-9.9,8.3-14.8,12.2c-14.6,11.7-29.7,23.8-38.6,40.1c-11,20.1-11.4,45.3-1,65.7c10.4,20.4,31.1,34.9,53.8,37.7
			c23.3,2.9,46.9-6.8,60.2-24.7c13.7-18.5,14.8-45.2,2.7-63.6c-12.5-19-39.1-27.4-59.3-18.8c-15.1,6.4-25.9,21.8-26.1,37.4
			c-0.2,16.2,11.4,31.8,26.5,35.5c15.7,3.8,33.2-6,37.4-21.1c1.9-6.7,0.7-14.6-3.1-21c-3.5-5.8-8.6-9.8-14.4-11.1
			c-6.4-1.5-13.8,0.8-19.2,6.1c-4.9,4.8-7,10.8-5.9,16.5c1.5,7.4,8.6,13.1,15.3,12.3c3.4-0.4,6.6-3,8.3-6.6c1.4-3.1,1.3-6.2-0.3-8.5
			c-1.1-1.6-3-2.8-5-3c-1.6-0.2-3,0.1-4,1c-0.8,0.7-2.1,0.6-2.8-0.2c-0.7-0.8-0.6-2.1,0.2-2.8c1.9-1.6,4.4-2.3,7.1-1.9
			c3.2,0.4,6.1,2.2,7.8,4.8c2.4,3.5,2.6,8,0.6,12.4c-2.2,4.9-6.6,8.3-11.4,8.9c-8.7,1.1-17.7-6-19.7-15.5c-1.4-7,1.2-14.5,7-20.2
			c6.4-6.2,15.1-8.9,22.9-7.1c6.9,1.6,12.9,6.2,16.9,13c4.4,7.4,5.7,16.4,3.5,24.1c-4.8,17-24.5,28.2-42.2,23.9
			c-16.8-4.1-29.9-21.4-29.6-39.5c0.2-17.1,12-34,28.5-41.1c22.2-9.5,50.4-0.6,64.2,20.3c13.1,19.8,11.9,48.5-2.8,68.2
			C1091.8,1117.7,1070.8,1127.7,1049.1,1127.7z"/>
	</g>
	<g>
		<path d="M144.3,945.9c-4.2,0-8.5-0.5-12.6-1.7c-21.9-5.9-39-26.8-41.5-50.7c-1.9-18,4-35.5,9.6-52.4c4.2-12.5,8.5-25.3,9.7-38.3
			c3.6-40.3-27.9-80.5-67.4-86.1c-19.2-2.7-39.9,3.1-56.8,16c-16.5,12.6-27.3,30.5-29.7,49.2c-2.4,19.2,4.1,39.6,17.9,55.9
			c13.5,15.9,32,25.5,50.8,26.3c10,0.4,19.3-1.4,26.9-5.3c7.7-3.9,14.6-10.4,20.6-19.2c14.3-21,17.3-48.2,7.7-69.4
			c-10.3-22.7-35.4-37-58.5-33.4C9,738.8-2.3,746-9.9,756.6c-7,9.8-9.9,21.1-8.1,31.8c1.4,8.3,5.3,16.1,8.8,23.1
			c3.3,6.7,7.1,14.3,13.2,19.4c9.5,8.1,24.9,9.3,36.7,2.9c11-6,19.1-18.2,21.2-31.9c2.1-13.8-2.2-27.3-11.2-35.2
			c-9.9-8.7-25.6-9-34.2-0.8c-6.6,6.3-8.5,17.2-4.4,25.4c4.1,8.2,14,13.2,23,11.6c4.8-0.8,9.6-4.2,12.1-8.6c1.9-3.3,2.3-6.8,1.1-9.8
			c-1.5-4.1-6.8-5.6-10.9-4.8c-1.4,0.2-5.9,1.4-5.9,5.8c0,1.1-0.9,2-2,2c0,0,0,0,0,0c-1.1,0-2-0.9-2-2c0-4.9,3.6-8.7,9.2-9.7
			c5.9-1.1,13,1.1,15.3,7.4c1.6,4.2,1.1,8.9-1.4,13.2c-3.1,5.4-8.8,9.5-14.9,10.5c-10.9,1.9-22.3-3.9-27.2-13.8
			c-4.9-9.8-2.7-22.5,5.3-30.1c10.1-9.6,28.2-9.2,39.6,0.7c10,8.8,14.8,23.6,12.5,38.8c-2.2,14.9-11.1,28.2-23.2,34.8
			c-13.4,7.3-30.3,5.9-41.2-3.4c-6.7-5.7-10.7-13.7-14.2-20.7c-3.6-7.2-7.7-15.3-9.2-24.2c-2-11.7,1.1-24.1,8.8-34.8
			C-4.9,742.8,7.3,735,20.3,733c24.8-3.9,51.8,11.4,62.8,35.7c10.2,22.4,7,51.2-8,73.3c-6.4,9.4-13.8,16.3-22.1,20.5
			c-8.2,4.2-18.2,6.2-28.9,5.7c-19.9-0.8-39.5-10.9-53.7-27.7c-14.5-17.1-21.3-38.6-18.8-59c2.5-19.7,13.9-38.6,31.2-51.9
			c17.7-13.5,39.5-19.6,59.8-16.8c41.5,5.9,74.6,48.1,70.9,90.4c-1.2,13.5-5.6,26.6-9.9,39.2c-5.8,17.2-11.3,33.5-9.5,50.7
			c2.3,22.3,18.2,41.7,38.6,47.2c21.3,5.8,45.3-5.3,53.5-24.7c4.1-9.7,3.7-21.6-1.2-32.1c-4.5-9.8-12.4-17-21.6-19.9
			c-9.4-3-19.3-1.4-25.8,4.1c-7,6-8.9,16.8-4.2,23.6c1.9,2.7,5.1,4.7,8.4,5.3c1.9,0.3,4.6,0.3,6.9-1.5c2.5-1.9,2.9-5.5,2.2-8
			c-0.2-0.9-1.3-4-4.3-4.4c-1.1-0.1-1.9-1.1-1.7-2.2s1.1-1.9,2.2-1.7c3.7,0.5,6.6,3.2,7.7,7.3c1,4,0.3,9.3-3.7,12.2
			c-2.7,2-6.3,2.8-10,2.2c-4.4-0.7-8.6-3.3-11.1-7c-5.8-8.5-3.6-21.7,4.9-29c7.5-6.4,18.8-8.2,29.6-4.9c10.2,3.2,19,11.2,24,22.1
			c5.3,11.4,5.7,24.6,1.2,35.3C182.6,934.6,163.7,945.9,144.3,945.9z"/>
	</g>
	<g>
		<path d="M1144.3,945.9c-4.2,0-8.5-0.5-12.6-1.7c-21.9-5.9-39-26.8-41.5-50.7c-1.9-18,4-35.5,9.6-52.4c4.2-12.5,8.5-25.3,9.7-38.3
			c3.6-40.3-27.9-80.5-67.4-86.1c-19.2-2.7-39.9,3.1-56.8,16c-16.5,12.6-27.3,30.5-29.7,49.2c-2.4,19.2,4.1,39.6,17.9,55.9
			c13.5,15.9,32,25.5,50.8,26.3c10,0.4,19.3-1.4,26.9-5.3c7.7-3.9,14.6-10.4,20.6-19.2c14.3-21,17.3-48.2,7.7-69.4
			c-10.3-22.7-35.5-37-58.5-33.4c-12,1.9-23.2,9.1-30.8,19.7c-7,9.8-9.9,21.1-8.1,31.8c1.4,8.3,5.3,16.1,8.8,23.1
			c3.3,6.7,7.1,14.3,13.2,19.4c9.5,8.1,24.9,9.3,36.7,2.9c11-6,19.1-18.2,21.2-31.9c2.1-13.8-2.2-27.3-11.2-35.2
			c-9.9-8.7-25.6-9-34.2-0.8c-6.6,6.3-8.5,17.2-4.4,25.4c4.1,8.2,14,13.2,23,11.6c4.8-0.8,9.6-4.2,12.1-8.6c1.9-3.3,2.3-6.8,1.1-9.8
			c-1.5-4.1-6.8-5.6-10.9-4.8c-1.4,0.2-5.9,1.4-5.9,5.8c0,1.1-0.9,2-2,2c0,0,0,0,0,0c-1.1,0-2-0.9-2-2c0-4.9,3.6-8.7,9.2-9.7
			c5.9-1.1,13,1.1,15.3,7.4c1.6,4.2,1.1,8.9-1.4,13.2c-3.1,5.4-8.8,9.5-14.9,10.5c-10.9,1.9-22.3-3.9-27.2-13.7
			c-4.9-9.8-2.7-22.5,5.3-30.1c10.1-9.6,28.2-9.2,39.6,0.7c10,8.8,14.8,23.6,12.5,38.8c-2.2,14.9-11.1,28.2-23.2,34.8
			c-13.4,7.3-30.3,5.9-41.2-3.4c-6.7-5.7-10.7-13.7-14.2-20.7c-3.6-7.2-7.7-15.3-9.2-24.2c-2-11.7,1.1-24.1,8.8-34.8
			c8.2-11.5,20.4-19.2,33.5-21.3c24.8-3.9,51.8,11.4,62.8,35.7c10.2,22.4,7,51.2-8,73.3c-6.4,9.4-13.8,16.3-22.1,20.5
			c-8.2,4.2-18.2,6.2-28.9,5.7c-19.9-0.8-39.5-10.9-53.7-27.7c-14.5-17.1-21.3-38.6-18.8-59c2.5-19.7,13.9-38.6,31.2-51.9
			c17.7-13.5,39.5-19.6,59.8-16.8c41.5,5.9,74.6,48.1,70.9,90.4c-1.2,13.5-5.6,26.6-9.9,39.2c-5.8,17.2-11.3,33.5-9.5,50.7
			c2.3,22.3,18.2,41.7,38.5,47.2c21.3,5.8,45.3-5.3,53.5-24.7c4.1-9.7,3.7-21.6-1.2-32c-4.5-9.8-12.4-17-21.6-19.9
			c-9.4-3-19.3-1.4-25.8,4.1c-7,6-8.9,16.8-4.2,23.6c1.9,2.7,5.1,4.7,8.4,5.3c1.9,0.3,4.6,0.3,6.9-1.5c2.5-1.9,2.9-5.5,2.2-8
			c-0.2-0.9-1.3-4-4.3-4.4c-1.1-0.1-1.9-1.1-1.7-2.2c0.1-1.1,1.1-1.9,2.2-1.7c3.7,0.5,6.6,3.2,7.7,7.3c1,4,0.3,9.3-3.7,12.2
			c-2.7,2-6.3,2.8-10,2.2c-4.4-0.7-8.6-3.3-11.1-7c-5.8-8.5-3.6-21.7,4.9-29c7.5-6.4,18.8-8.2,29.6-4.9c10.2,3.2,19,11.2,24,22.1
			c5.3,11.4,5.7,24.6,1.2,35.3C1182.6,934.6,1163.7,945.9,1144.3,945.9z"/>
	</g>
	<g>
		<path d="M84.1,981.5c-2.6,0-5-0.6-7.2-1.9c-4.4-2.5-7.4-7.2-8.1-12.9c-0.9-6.2,1-12.3,5-16.4c7.4-7.7,21.1-8.4,30.3-1.7
			c8.3,6,12.9,17.2,11.9,28.5c-0.1,1.1-1.1,1.9-2.2,1.8c-1.1-0.1-1.9-1.1-1.8-2.2c0.9-10-3.1-19.8-10.3-24.9
			c-7.7-5.6-19-5.1-25.1,1.2c-3.1,3.2-4.6,8.2-3.9,13.1c0.6,4.4,2.9,8,6.2,10c3.6,2.1,8.6,1.7,12.7-1c3.7-2.4,5.7-6.1,5.3-9.7
			c-0.3-2.4-2-4.8-4.2-5.9c-1-0.5-2.4-0.9-3.8-0.1c-1,0.8-1,2.3-0.6,3.5c0.4,1.2,1.5,2.4,2.8,2.3c1.1-0.1,2.1,0.7,2.2,1.8
			s-0.7,2.1-1.8,2.2c-3,0.3-5.7-1.7-6.9-4.9c-1.2-3.2-0.3-6.5,2.1-8.2c0,0,0.1-0.1,0.1-0.1c2.3-1.3,5-1.3,7.7,0
			c3.4,1.7,5.9,5.3,6.3,9c0.6,5.2-2.1,10.2-7.1,13.5C90.8,980.5,87.4,981.5,84.1,981.5z"/>
	</g>
	<g>
		<path d="M239.9,880.8c-6.8,0-13.6-1.1-19.7-3.2c-17.7-6-31.6-18.5-37-33.5c-6.3-17.3-0.1-37.7,14.2-46.4
			c7.7-4.7,18.2-5.5,27.3-1.9c8.3,3.2,14.3,9.4,16.4,16.9c2.6,9-1.2,21-10.8,23.8c-5.9,1.7-11.6-1.9-14.3-6
			c-2.8-4.2-2.8-8.9-0.1-12.3c0.7-0.9,2-1,2.8-0.3c0.9,0.7,1,2,0.3,2.8c-2.4,3-0.4,6.6,0.3,7.6c2,3,6.1,5.5,9.9,4.4
			c5.9-1.7,10.6-10.2,8.1-18.9c-1.8-6.3-7-11.6-14-14.3c-8-3.1-17.1-2.5-23.8,1.6c-12.7,7.8-18.2,26.1-12.5,41.7
			c5,13.8,18,25.4,34.5,31c17.7,6,41.5,3.6,52.5-12.5c3.4-5,5.7-11.2,7.1-19.7c5.3-30.8-6.1-62-28.4-77.7
			c-16.7-11.8-38-14.8-58.5-17.7c-2.7-0.4-5.5-0.8-8.2-1.2c-21.9-3.3-48.9-9.6-64-29.8c-10.2-13.6-13.8-33-9.5-51.9
			c3.5-15.7,12.1-31.4,25.5-46.6c11.1-12.6,28.6-27.4,49.3-26.5c8,0.4,16.4,3.1,25.2,8.2c25.2,14.7,40.8,42.8,38.8,69.9
			c-1,13.8-7,27.3-16.8,38.1c-10,11-22.9,17.7-36.4,19.1c-14.1,1.4-29.3-3.9-40.6-14.3c-10.6-9.7-16.6-22.6-16.5-35.4
			c0.1-12,5.6-24.1,15.2-33.2c9.5-9.1,21.9-14,33.9-13.4c10.8,0.5,21.7,5.7,29.2,13.9c6.4,7,9.6,15.6,9.1,24.1
			c-0.5,10-6,19.8-14.6,26.3c-7.7,5.8-18.2,8.2-28,6.4c-8.3-1.5-15-5.8-19.1-12.1c-5.7-8.9-3.2-20.1,1.8-27.3
			c5.2-7.5,12.9-11,20.6-9.4c4.8,1,9.4,4.5,11.8,8.9c2,3.7,2.4,7.7,1.1,11.3c-2,5.3-7.8,7.3-12.4,6.9c-4.8-0.4-8.3-3.2-9.1-7.3
			c-0.2-1.1,0.5-2.1,1.6-2.3c1.1-0.2,2.1,0.5,2.3,1.6c0.7,3.4,4.4,4,5.5,4.1c3.2,0.3,7.1-1.1,8.4-4.4c0.9-2.5,0.6-5.3-0.8-8
			c-1.9-3.5-5.4-6.1-9.1-6.9c-6-1.3-12.2,1.6-16.5,7.7c-4.2,6.1-6.4,15.5-1.7,22.9c3.4,5.4,9.3,9.1,16.4,10.4
			c8.6,1.6,18.2-0.6,24.9-5.7c7.7-5.8,12.6-14.5,13-23.3c0.4-7.4-2.5-14.9-8.1-21.1c-6.8-7.5-16.6-12.2-26.4-12.6
			c-11-0.5-22.3,4-31,12.4s-13.8,19.4-13.9,30.3c-0.1,11.7,5.4,23.6,15.2,32.4c10.5,9.6,24.5,14.6,37.5,13.3
			c25.3-2.5,47.6-26.5,49.6-53.5c1.9-25.6-12.9-52.1-36.9-66.1c-8.1-4.8-16-7.3-23.3-7.7c-19.1-0.9-35.6,13.2-46.1,25.1
			c-13,14.7-21.2,29.8-24.6,44.9c-4,17.8-0.7,35.9,8.8,48.6c14.2,19,40.3,25.1,61.4,28.2c2.7,0.4,5.4,0.8,8.2,1.2
			c21,3,42.8,6,60.3,18.4c23.5,16.6,35.6,49.4,30,81.6c-1.5,9-4,15.8-7.8,21.3C269,875.7,254.4,880.8,239.9,880.8z"/>
	</g>
	<g>
		<path d="M556.5,169.5c-4.7,0-9.7-1.4-14.3-4c-17.2-9.8-22.1-31.6-21-47.4c1.4-22,13.5-27.6,17.2-28.8c11.7-3.8,21.9,4,31.7,11.5
			c2.9,2.3,5.7,4.4,8.5,6.2c10.5,6.8,23.7,9.2,37.3,6.8c13.2-2.3,25.5-9.2,33.6-18.8c16.6-19.5,19.3-50,6.5-74.2
			c-8.3-15.9-22.3-27.2-37.3-30.4c-16.7-3.5-34.7,4.1-42,17.8c-4.3,8.2-5,17.9-5.1,27.3c-0.2,13.9,1,31.2,11.9,42.3
			c9.5,9.7,25.8,12.4,38.7,6.3c12.4-5.9,21.2-19,22.3-33.5c1.3-16-7.8-31.8-21.1-36.8c-7.1-2.7-16-1.6-23,2.7
			c-6.2,3.8-10.2,9.5-11,15.7c-0.5,4.2,0.2,8.8,2.1,13.2c3.5,8.2,12.6,16.2,22.5,14.6c4.6-0.7,9.1-4.5,11-9.4c1.6-4.1,1.2-8-1-10.9
			c-1.3-1.6-3.4-2.8-5.4-3c-0.9-0.1-2.2,0-3.2,1c-0.8,0.7-2.1,0.7-2.8-0.1c-0.7-0.8-0.7-2.1,0.1-2.8c1.6-1.5,3.9-2.2,6.3-2
			c3.1,0.3,6.2,2,8.2,4.5c3.2,4,3.7,9.5,1.6,14.9c-2.5,6.3-8,11-14.1,11.9c-9.1,1.4-21.2-4-26.7-17c-2.2-5.1-3-10.4-2.4-15.3
			c0.9-7.5,5.6-14.3,12.9-18.7c8.1-4.9,18.3-6.1,26.5-3c15.2,5.6,25.1,22.8,23.7,40.8c-1.3,15.9-10.9,30.4-24.6,36.8
			c-14.4,6.8-32.6,3.8-43.3-7.1c-11.9-12.2-13.2-30.5-13-45.2c0.1-9.9,0.9-20.2,5.6-29.1c8-15.2,28-23.7,46.3-19.8
			c16.2,3.4,31.2,15.5,40.1,32.4c13.5,25.6,10.6,57.9-7,78.6c-18.8,22.1-52.9,27.8-76.1,12.7c-3-1.9-5.9-4.2-8.8-6.4
			c-9.4-7.2-18.3-14-28.1-10.9c-9.6,3.1-13.7,15-14.4,25.2c-1,14.6,3.5,34.8,19,43.6c6.1,3.5,12.9,4.4,18.5,2.5
			c6.1-2.1,10.5-8,10.3-13.7c-0.1-2.7-1.1-5.4-2.9-8.3c-3.5-5.4-9.2-8.8-14.4-8.5c-2.9,0.1-5.9,1.8-7.8,4.2c-1.6,2-2.2,4.3-1.8,6.4
			c0.5,2.7,3.3,4.5,5.7,4.9c0.9,0.2,3.9,0.6,5.5-1.8c0.6-0.9,1.8-1.2,2.8-0.6c0.9,0.6,1.2,1.8,0.6,2.8c-1.9,3-5.6,4.4-9.6,3.6
			c-4.5-0.9-8.1-4.1-8.8-8.1c-0.6-3.3,0.3-6.7,2.5-9.6c2.6-3.4,6.6-5.5,10.7-5.7c6.7-0.3,13.6,3.6,17.9,10.3
			c2.2,3.4,3.4,6.9,3.6,10.3c0.3,7.6-5.2,15-13,17.7C561.6,169.1,559,169.5,556.5,169.5z"/>
	</g>
	<g>
		<path d="M741.9,56.1c-12.4,0-25.1-3.9-35.6-11.5c-16.8-12.2-27.7-33.3-29.4-56.3c-0.8-11.2,0.6-21.2,4.1-30
			c10-24.9,39.6-40.3,68.8-36c25.5,3.8,49.3,20.8,65.3,46.7c3,4.9,5.8,10.1,8.4,15.1c5.2,9.7,10.5,19.8,18.1,27.8
			c15.7,16.8,41,23.7,63,17.4c22-6.4,39.7-25.7,44.1-48.3c3.5-18.4-2.3-37.5-14.8-48.8c-13.5-12.2-34.8-14-48.5-4.1
			c-5.6,4-10.4,10.1-14.3,18.1c-4,8-8.1,20.2-5.3,32.6C868.3-10,877-0.8,887,1.1c6.9,1.3,14.3-1.3,20-7.1c5.6-5.7,8.2-13.2,6.8-20.1
			c-1.5-7-7.5-14.2-15.2-14.2c-0.1,0-0.2,0-0.2,0c-3.6,0.1-7.4,2.6-9.4,6.2c-1.6,3-1.7,6.1-0.2,8.5c0.6,0.9,0.3,2.2-0.6,2.8
			c-0.9,0.6-2.2,0.3-2.8-0.6c-2.3-3.7-2.3-8.2,0-12.6c2.7-5,7.7-8.2,12.8-8.3c0.1,0,0.2,0,0.3,0c7.7,0,16.9,6.4,19.2,17.4
			c1.7,8.2-1.2,17-7.8,23.7c-6.6,6.7-15.4,9.8-23.6,8.2c-11.7-2.2-21.5-12.5-24.4-25.5c-3-13.6,1.4-26.7,5.6-35.2
			c4.2-8.6,9.5-15.1,15.5-19.5c15.2-11,38.7-9,53.5,4.4c13.5,12.2,19.8,32.8,16,52.6c-4.6,24-23.4,44.6-46.9,51.4
			c-23.4,6.8-50.4-0.7-67-18.5c-7.9-8.4-13.4-18.7-18.7-28.7c-2.6-4.9-5.3-10-8.3-14.8c-15.2-24.5-38.6-41.3-62.5-44.8
			c-27.5-4.1-55.2,10.3-64.5,33.5c-3.3,8.2-4.6,17.7-3.8,28.2c1.6,21.9,12,41.8,27.8,53.4c17.2,12.6,41,14.4,57.9,4.4
			c17.8-10.5,26.9-34.2,20.8-53.9c-6.1-19.7-27.1-34.1-47.7-32.6c-6.5,0.5-12.4,2.3-16.8,5.4c-7.9,5.4-12.9,15.7-13.2,26.8
			c-0.4,16.4,9.6,32,23.8,37c7.4,2.6,16.3,1.9,23.8-1.9c6.9-3.5,11.8-9,13.9-15.5c2.1-6.6,1-13.3-2.7-17.6c-2.1-2.4-5.2-3.9-8.5-4.2
			c-2.8-0.2-5.3,0.6-7.1,2.1c-2.1,1.8-3,5-2.3,8.1c0.6,2.7,2.1,4.6,4.3,5.2c1.1,0.3,1.7,1.4,1.3,2.5c-0.3,1.1-1.4,1.7-2.5,1.3
			c-3.5-1.1-6.1-4.2-7-8.2c-1-4.5,0.5-9.2,3.6-11.9c2.6-2.3,6.2-3.4,10-3.1c4.3,0.3,8.5,2.4,11.3,5.5c4.6,5.4,6,13.6,3.5,21.4
			c-2.4,7.6-8.1,13.9-15.9,17.9c-8.6,4.3-18.4,5.1-26.9,2.1c-15.8-5.6-27-22.7-26.5-40.9c0.3-12.6,5.9-23.8,14.9-30
			c5.1-3.5,11.6-5.6,18.8-6.1c22.4-1.6,45.1,14,51.8,35.4c6.7,21.4-3.2,47.2-22.6,58.6C760.7,53.8,751.4,56.1,741.9,56.1z"/>
	</g>
	<g>
		<path d="M556.5,1169.5c-4.7,0-9.7-1.4-14.3-4c-17.2-9.8-22.1-31.6-21-47.4c1.4-22,13.5-27.6,17.2-28.8c11.7-3.8,21.9,4,31.7,11.5
			c2.9,2.3,5.7,4.4,8.5,6.2c10.5,6.8,23.7,9.2,37.3,6.8c13.2-2.3,25.5-9.2,33.6-18.8c16.6-19.5,19.3-50,6.5-74.2
			c-8.3-15.9-22.3-27.2-37.3-30.4c-16.7-3.5-34.7,4.1-42,17.8c-4.3,8.2-5,17.9-5.1,27.3c-0.2,13.9,1,31.2,11.9,42.3
			c9.5,9.7,25.8,12.4,38.7,6.3c12.4-5.9,21.2-19,22.3-33.5c1.3-16-7.8-31.8-21.1-36.8c-7.1-2.7-16-1.6-23,2.7
			c-6.2,3.8-10.2,9.5-11,15.7c-0.5,4.2,0.2,8.8,2.1,13.2c3.5,8.2,12.6,16.2,22.5,14.6c4.6-0.7,9.1-4.5,11-9.4c1.6-4.1,1.2-8-1-10.9
			c-1.3-1.6-3.4-2.8-5.4-3c-0.9-0.1-2.2,0-3.2,1c-0.8,0.7-2.1,0.7-2.8-0.1c-0.7-0.8-0.7-2.1,0.1-2.8c1.6-1.5,3.9-2.2,6.3-2
			c3.1,0.3,6.2,2,8.2,4.5c3.2,4,3.7,9.5,1.6,14.9c-2.5,6.3-8,11-14.1,11.9c-9.1,1.4-21.2-4-26.7-17c-2.2-5.1-3-10.4-2.4-15.3
			c0.9-7.5,5.6-14.3,12.9-18.7c8.1-4.9,18.3-6.1,26.5-3c15.2,5.6,25.1,22.8,23.7,40.8c-1.3,15.9-10.9,30.4-24.6,36.8
			c-14.4,6.8-32.6,3.8-43.3-7.1c-11.9-12.2-13.2-30.5-13-45.2c0.1-9.9,0.9-20.2,5.6-29.1c8-15.2,28-23.7,46.3-19.8
			c16.2,3.4,31.2,15.5,40.1,32.4c13.5,25.6,10.6,57.9-7,78.6c-18.8,22.1-52.9,27.8-76.1,12.7c-3-1.9-5.9-4.2-8.8-6.4
			c-9.4-7.2-18.3-14-28.1-10.9c-9.6,3.1-13.7,15-14.4,25.2c-1,14.6,3.5,34.8,19,43.6c6.1,3.5,12.9,4.4,18.5,2.5
			c6.1-2.1,10.5-8,10.3-13.7c-0.1-2.7-1.1-5.4-2.9-8.3c-3.5-5.4-9.2-8.8-14.4-8.5c-2.9,0.2-5.9,1.8-7.8,4.2c-1.6,2-2.2,4.3-1.8,6.4
			c0.5,2.7,3.3,4.5,5.7,4.9c0.9,0.2,3.9,0.6,5.5-1.8c0.6-0.9,1.8-1.2,2.8-0.6c0.9,0.6,1.2,1.8,0.6,2.8c-1.9,3-5.6,4.4-9.6,3.6
			c-4.5-0.9-8.1-4.1-8.8-8.1c-0.6-3.3,0.3-6.7,2.5-9.6c2.6-3.4,6.6-5.5,10.7-5.7c6.7-0.4,13.6,3.6,17.9,10.3
			c2.2,3.4,3.4,6.9,3.6,10.3c0.3,7.6-5.2,15-13,17.7C561.6,1169.1,559.1,1169.5,556.5,1169.5z"/>
	</g>
	<g>
		<path d="M741.9,1056.1c-12.4,0-25.1-3.9-35.6-11.5c-16.8-12.2-27.7-33.3-29.4-56.3c-0.8-11.2,0.6-21.2,4.1-30
			c10-24.9,39.6-40.3,68.8-36c25.5,3.8,49.3,20.8,65.3,46.7c3,4.9,5.8,10.1,8.4,15.1c5.2,9.7,10.5,19.8,18.1,27.8
			c15.7,16.8,41,23.7,63,17.4c22-6.4,39.7-25.7,44.1-48.3c3.5-18.4-2.3-37.5-14.8-48.8c-13.5-12.2-34.8-14-48.5-4.1
			c-5.6,4-10.4,10.1-14.3,18.1c-4,8-8.1,20.2-5.3,32.6c2.5,11.3,11.3,20.6,21.2,22.5c6.9,1.3,14.3-1.3,20-7.1
			c5.7-5.7,8.2-13.2,6.8-20.1c-1.5-7-7.5-14.2-15.2-14.2c-0.1,0-0.2,0-0.2,0c-3.6,0.1-7.4,2.6-9.4,6.2c-1.6,3-1.7,6.1-0.2,8.5
			c0.6,0.9,0.3,2.2-0.6,2.8c-0.9,0.6-2.2,0.3-2.8-0.6c-2.3-3.7-2.3-8.2,0-12.6c2.7-5,7.7-8.2,12.8-8.3c0.1,0,0.2,0,0.3,0
			c7.7,0,16.9,6.4,19.2,17.4c1.7,8.2-1.2,17-7.8,23.7c-6.6,6.7-15.4,9.7-23.6,8.2c-11.7-2.2-21.5-12.5-24.4-25.5
			c-3-13.6,1.4-26.7,5.6-35.2c4.2-8.6,9.5-15.1,15.5-19.5c15.2-11,38.7-9,53.5,4.4c13.5,12.2,19.8,32.8,16,52.6
			c-4.6,24-23.4,44.6-46.9,51.4c-23.4,6.8-50.4-0.7-67-18.5c-7.9-8.4-13.4-18.7-18.7-28.7c-2.6-4.9-5.4-10-8.3-14.8
			c-15.2-24.5-38.6-41.3-62.5-44.8c-27.5-4.1-55.2,10.3-64.5,33.5c-3.3,8.2-4.6,17.7-3.8,28.2c1.6,21.8,12,41.8,27.8,53.4
			c17.2,12.6,41,14.4,57.9,4.4c17.8-10.5,26.9-34.2,20.8-53.9s-27.1-34.1-47.7-32.6c-6.5,0.5-12.4,2.3-16.8,5.4
			c-7.9,5.4-12.9,15.7-13.2,26.8c-0.4,16.4,9.6,32,23.8,37c7.4,2.6,16.3,1.9,23.8-1.9c6.9-3.5,11.8-9,13.9-15.5
			c2.1-6.6,1-13.3-2.7-17.6c-2.1-2.4-5.2-3.9-8.5-4.2c-2.8-0.2-5.3,0.6-7.1,2.1c-2.1,1.8-3,5-2.3,8.1c0.6,2.7,2.1,4.6,4.3,5.2
			c1.1,0.3,1.7,1.4,1.3,2.5c-0.3,1.1-1.4,1.7-2.5,1.3c-3.5-1.1-6.1-4.2-7-8.2c-1-4.5,0.5-9.2,3.6-11.9c2.6-2.3,6.2-3.4,10-3.1
			c4.3,0.3,8.5,2.4,11.3,5.5c4.6,5.4,6,13.6,3.5,21.4c-2.4,7.6-8.1,13.9-15.9,17.9c-8.6,4.3-18.4,5.1-26.9,2.1
			c-15.8-5.6-27-22.7-26.5-40.9c0.3-12.6,5.9-23.8,14.9-30c5.1-3.5,11.6-5.6,18.8-6.1c22.4-1.6,45.1,14,51.8,35.4
			c6.7,21.4-3.2,47.2-22.6,58.6C760.7,1053.8,751.4,1056.1,741.9,1056.1z"/>
	</g>
	<g>
		<path d="M903.4,260.3c-0.5,0-0.9,0-1.4,0c-16.7-0.7-32.1-13.4-35.9-29.6c-5-21.3,9.4-42.6,25.8-54.3c4.1-3,8.6-5.6,12.9-8.2
			c8.3-5,16.2-9.6,22.4-16.5c5.3-5.9,9.5-13.7,12.9-23.8c5.5-16.4,6.6-32.1,3.1-45.4c-4.1-15.7-15-28.3-28.5-32.9
			c-13.1-4.5-27.7-1.6-40.6,1c-6.3,1.3-13.4,2.7-18.9,6.6c-4.2,2.9-7.7,7.4-10.7,13.7c-8.6,18-7.4,39.7,3.3,55.2
			c11.1,16.2,32.3,24.3,50.4,19.2c11.3-3.2,21.1-11.9,26.7-23.8c6-12.7,6.6-27.2,1.5-38.9c-5.4-12.5-16.1-20.9-27.1-21.3
			c-7.3-0.3-15,2.9-21.3,8.7c-10.3,9.6-14,25-8.5,36c3,5.9,9.3,10.5,16.4,11.8c6.1,1.1,12-0.3,16-3.9c4.5-4.1,6.3-10.7,4.1-15.5
			c-1.1-2.5-3.7-4.6-6.6-5.4c-2.2-0.6-4.2-0.4-5.9,0.5l-0.2,9.7c0,1.1-0.9,2-2,2c0,0,0,0,0,0c-1.1,0-2-0.9-2-2l0.2-10.8
			c0-0.6,0.3-1.2,0.8-1.6c2.8-2,6.5-2.6,10.1-1.6c4.1,1.1,7.6,4,9.2,7.6c2.8,6.4,0.7,14.8-5.1,20.1c-4.9,4.5-12,6.3-19.4,4.9
			c-8.4-1.6-15.8-6.9-19.3-13.9c-6.4-12.7-2.5-29.9,9.3-40.8c7-6.5,15.9-10.1,24.2-9.7C912,57.8,924,67.1,930,81
			c5.5,12.7,5,28.5-1.5,42.2c-6.2,13-16.8,22.5-29.3,26c-19.7,5.5-42.7-3.2-54.8-20.8c-11.4-16.7-12.9-39.9-3.6-59.2
			c3.3-6.9,7.2-11.8,12-15.2c6.2-4.3,13.8-5.9,20.4-7.2c12.7-2.6,28.5-5.7,42.6-0.9c14.7,5,26.6,18.7,31.1,35.6
			c3.7,14,2.6,30.5-3.2,47.6c-3.6,10.7-8.1,19-13.8,25.2c-6.6,7.3-15.1,12.4-23.3,17.2c-4.2,2.5-8.6,5.1-12.6,8
			c-15.4,10.9-28.8,30.7-24.2,50.2c3.4,14.5,17.3,26,32.2,26.6c14.9,0.6,29.6-9.7,34.2-23.9c4.3-13.4-1.5-29.3-12.9-35.3
			c-6-3.2-13.7-3.3-20.5-0.4c-6.1,2.6-10.5,7.3-12.1,12.9c-2.1,7.4,1,15.8,7.1,19.1c3.1,1.7,7.3,1.8,11,0.2c3.2-1.4,5.5-3.8,6.2-6.7
			c0.9-3.2-0.5-6.8-3.5-9.4c-2.6-2.2-5.7-2.9-8.3-1.8c-1,0.4-2.2,0-2.6-1s0-2.2,1-2.6c4-1.8,8.7-0.9,12.5,2.4
			c4.1,3.5,6,8.8,4.7,13.5c-1.1,4.1-4.2,7.5-8.5,9.3c-4.8,2.1-10.2,1.9-14.4-0.4c-7.8-4.2-11.7-14.4-9.1-23.7
			c1.9-6.8,7.1-12.4,14.4-15.5c8-3.4,16.9-3.2,24,0.5c13.2,7.1,19.7,24.7,14.8,40.1C935.2,249,919.6,260.3,903.4,260.3z"/>
	</g>
	<g>
		<path d="M788,339.8c-9.6,0-19.4-2.2-28.2-6.8c-12.3-6.5-20.3-16.4-22-27.2c-1.3-8.8,2.1-17.8,9.4-24.8c8-7.7,19.2-11.2,29.1-9.2
			c9.1,1.8,16.5,7.3,19.9,14.6c3.9,8.4,1.5,18.8-5.3,23.8c-3.8,2.7-8.9,3.5-13.8,2.1c-4.4-1.3-7.7-4.2-9.2-8
			c-1.7-4.3-0.5-9.6,3.1-13.4c3.3-3.6,7.7-4.9,11.8-3.6c1.1,0.3,1.6,1.5,1.3,2.5c-0.3,1.1-1.5,1.6-2.5,1.3c-2.5-0.8-5.4,0.1-7.6,2.5
			c-2.1,2.2-3.6,5.9-2.3,9.2c1,2.6,3.5,4.7,6.6,5.6c3.6,1,7.5,0.5,10.3-1.5c5.4-3.9,7.2-12.2,4.1-18.9c-2.8-6.1-9.3-10.8-17-12.4
			c-8.6-1.8-18.4,1.4-25.5,8.1c-6.3,6-9.3,13.8-8.2,21.3c0.7,4.5,4,15.9,19.9,24.3c22,11.5,51.3,6.7,66.9-11.1
			c16.2-18.5,15-49.7-2.4-65.6c-14.7-13.3-34.7-14.8-56-16.3c-10.7-0.8-21.7-1.5-32.1-4c-34.3-8.1-61.7-37.1-66.7-70.5
			c-5.2-34.6,15.4-71.2,46.9-83.4c32.6-12.6,73.5,3.5,87.6,34.4c7.1,15.6,6.8,34.3-0.7,51.5c-7.1,16.3-19.9,28.5-35.2,33.6
			c-16,5.3-34.8,2.2-50.3-8.4c-15-10.2-24.1-25.3-24.9-41.5c-0.5-10,1.8-20,6.7-28.1c7.9-13.2,22.7-22.1,38.7-23.2
			c23.2-1.6,45.3,15,48.2,36.3c1.5,11.2-3.4,23.3-12.9,31.6c-8.5,7.5-18.9,10.2-28.5,7.6c-7.5-2.1-14.3-8.1-17.7-15.6
			c-3-6.6-3-13.4-0.2-19.2c3.9-7.9,13-10.8,20.3-10.1c7.7,0.7,13.6,5.1,15.4,11.4c0.3,1.1-0.3,2.2-1.4,2.5c-1.1,0.3-2.2-0.3-2.5-1.4
			c-1.4-4.8-5.8-8-11.9-8.5c-5.9-0.5-13.3,1.7-16.4,7.9c-2.3,4.7-2.2,10.3,0.2,15.8c2.9,6.5,8.7,11.7,15.1,13.4
			c8.3,2.3,17.3-0.2,24.8-6.7c8.4-7.4,12.9-18.1,11.5-28c-2.6-18.9-23.1-34.3-44-32.8c-14.7,1-28.3,9.1-35.5,21.2
			c-4.4,7.4-6.6,16.6-6.1,25.8c0.8,14.9,9.2,28.8,23.2,38.4c14.5,9.9,32,12.8,46.8,7.9c14.1-4.7,26.1-16.1,32.8-31.4
			c7-16.1,7.3-33.6,0.7-48.2c-13.2-29.1-51.7-44.2-82.5-32.3c-29.9,11.5-49.4,46.3-44.4,79.1c4.8,31.9,31,59.5,63.7,67.2
			c10,2.4,20.9,3.1,31.4,3.9c21,1.5,42.7,3,58.4,17.3c9.2,8.4,14.8,21.1,15.2,34.8c0.4,13.6-4.1,26.8-12.5,36.3
			C820.9,333.3,804.6,339.8,788,339.8z"/>
	</g>
	<g>
		<path d="M895.4,468.9c-1.1,0-2.3-0.1-3.4-0.2c-16-1.7-29.3-16.2-29-31.6c0.1-3.7,0.9-8.8,4.7-12.3c6.3-5.9,17-3.5,23.1,2.5
			c2.3,2.3,5.1,6,4.9,10.5c-0.1,2.5-1.3,4.9-3.3,6.6c-1.6,1.4-3.6,2-5.6,1.7c-1.1-0.2-1.9-1.2-1.7-2.3s1.2-1.9,2.3-1.7
			c1,0.1,1.9-0.4,2.5-0.8c1.1-0.9,1.8-2.3,1.8-3.6c0.1-3.2-2.3-6.1-3.7-7.5c-4.7-4.6-13-6.7-17.5-2.4c-2.9,2.7-3.4,7.1-3.4,9.5
			c-0.2,13.4,11.4,26,25.5,27.5c13.3,1.4,27.5-6.9,33.7-19.8c5.9-12.2,4.9-27.7-2.5-40.4c-6.7-11.5-18.7-20.9-32.9-25.7
			c-2-0.7-4.1-1.3-6.1-1.9c-6-1.7-12.2-3.6-17.5-7.4c-3.9-2.9-7.4-7-10.6-12.6c-7.9-14-9.9-29.5-5.3-42.6
			c5.3-15,19.7-25.3,34.1-24.5c8.2,0.5,16.1,4.8,21.6,11.9c5.6,7.1,7.9,15.8,6.4,23.8c-1.5,8-6.3,14.8-12.8,18.2
			c-7.2,3.8-16.5,2.7-22.1-2.5c-5.2-4.9-8.5-15.2-3.2-26.3c1.4-2.9,2.9-4.9,4.9-6.2c2.4-1.7,5.6-2.1,8.7-1.2c3.1,0.9,5.5,3,6.6,5.8
			s0.9,5.9-0.7,8.8c-1.5,2.8-4.1,4.8-7,5.3c-1.1,0.2-2.1-0.5-2.3-1.6c-0.2-1.1,0.5-2.1,1.6-2.3c1.7-0.3,3.3-1.5,4.2-3.3
			c1-1.8,1.1-3.7,0.5-5.3c-0.7-1.6-2.2-2.9-4.1-3.5c-1.9-0.6-3.9-0.3-5.3,0.6c-1.3,0.9-2.4,2.4-3.5,4.6c-3.2,6.7-3.4,16.3,2.3,21.6
			c4.4,4.1,11.7,4.9,17.5,1.9c5.4-2.8,9.4-8.6,10.7-15.4c1.3-6.9-0.8-14.4-5.6-20.6c-4.9-6.2-11.7-9.9-18.7-10.3
			c-12.5-0.7-25.5,8.7-30.1,21.9c-4.2,11.9-2.4,26.2,5,39.3c2.9,5.1,6,8.8,9.5,11.4c4.7,3.4,10.3,5.1,16.2,6.8
			c2.1,0.6,4.2,1.2,6.3,1.9c15.4,5.2,27.8,14.9,35.1,27.5c8,13.9,9,30.8,2.6,44.2C923.3,460,909.3,468.9,895.4,468.9z"/>
	</g>
	<g>
		<path d="M952.8,549.2c-3.1,0-6.4-0.5-9.6-1.6c-8.4-2.8-15.7-8.9-19.5-16.5c-6.7-13.4-4.3-31.5,5.8-45c1.9-2.5,3.9-4.8,5.9-7
			c2.2-2.4,4.4-4.9,6.3-7.6c13.1-18.3,10.7-44,7.2-64.3c-0.2-1.1,0.5-2.1,1.6-2.3c1.1-0.2,2.1,0.5,2.3,1.6c7,40.1-0.5,57.1-7.9,67.3
			c-2,2.8-4.3,5.4-6.6,7.9c-1.9,2.2-4,4.4-5.7,6.8c-9.3,12.4-11.5,28.8-5.4,40.8c3.3,6.6,9.7,12,17.2,14.5c6.5,2.1,13.1,1.8,18.5-1
			c6.8-3.5,12-10.7,13.9-19.3c1.7-7.6,0.5-15.1-3.2-20.6c-4-6-11.3-9.4-17.7-8.2c-6.7,1.3-11.9,8.2-10.8,14.4c0.5,3.1,2.9,6,6.1,7.6
			c2.7,1.3,5.4,1.4,7.7,0.4l2.3-6.8c0.4-1,1.5-1.6,2.5-1.3c1,0.4,1.6,1.5,1.3,2.5l-2.5,7.6c-0.2,0.5-0.5,0.9-0.9,1.1
			c-3.6,2-8,2-12.1,0c-4.4-2.1-7.6-6.2-8.3-10.5c-1.4-8.4,5.2-17.3,14-19c7.9-1.5,16.9,2.5,21.8,9.9c4.3,6.4,5.6,15,3.7,23.7
			c-2.1,9.7-8.1,17.9-15.9,22C961.1,548.3,957,549.2,952.8,549.2z"/>
	</g>
	<g>
		<path d="M297.5,379.5c-2.5,0-5.2-0.4-7.9-1.3c-12.6-4-22.2-16.5-22.7-29.7c-0.1-3.8,0.5-6.8,1.9-9.3c1.8-3.2,5.1-5.3,9.1-5.9
			c4.5-0.6,8.9,0.7,12,3.6c5.4,5.2,6.3,14.5,2.1,21.7c-0.4,0.7-1.3,1.1-2.1,1c-4-0.7-7.1-4.4-7.3-8.4c0-1.1,0.8-2,1.9-2.1
			c1.1,0,2,0.8,2.1,1.9c0.1,1.7,1.2,3.3,2.6,4.1c2.3-5.3,1.5-11.8-2.2-15.3c-2.1-2-5.4-3-8.6-2.6c-2.8,0.4-5,1.8-6.2,3.9
			c-1,1.8-1.5,4.1-1.3,7.1c0.5,11.6,8.8,22.6,19.9,26.1c4.8,1.5,11.4,1.8,15.9-1.9c4.7-3.9,5.6-10.8,5.4-15.9
			c-0.4-18.6-12.1-37.2-30.3-48.6c-15.1-9.4-34.6-14.3-58-14.7c-2.1,0-4.3,0-6.4,0c-7.9,0-16.1,0-24-1.8
			c-26.4-6-45.7-33.7-42.3-60.5c0.1-1.1,1.1-1.9,2.2-1.7c1.1,0.1,1.9,1.1,1.7,2.2c-3.2,24.9,14.8,50.5,39.3,56.1
			c7.5,1.7,15.5,1.7,23.2,1.7c2.2,0,4.3,0,6.5,0c24.2,0.4,44.4,5.5,60.1,15.3c19.4,12.1,31.7,32,32.2,51.9c0.1,6-0.9,14.2-6.9,19.1
			C306.1,378.2,302,379.5,297.5,379.5z"/>
	</g>
	<g>
		<path d="M197.6,951.2c-0.1,0-0.3,0-0.4,0c-1.1-0.2-1.8-1.3-1.5-2.4c2.2-10.1,10.6-29.2,42-43.6c19.8-9.1,38-12.1,54.1-9
			c15.8,3,29.9,12,42.4,20c12.2,7.8,25.9,16.6,41,19.4c13.4,2.5,30.9-0.4,39.7-12.9c7.2-10.1,7-25.5-0.5-36.5
			c-7-10.4-19.9-17.1-33.7-17.5c-5.7-0.2-9.7,0.9-12.3,3.4c-1.7,1.6-3,4-4,7.4c-2.3,8-1.5,16,2.2,21.9c4.1,6.5,11.9,10,18.6,8.3
			c3.5-0.9,6.6-3.5,8.4-7c1.6-3.1,1.9-6.3,0.8-9.2c-1.2-3.1-4.4-5.4-8.1-6c-3.4-0.5-6.4,0.5-8.2,2.7c-0.7,0.9-1.9,1-2.8,0.3
			c-0.9-0.7-1-1.9-0.3-2.8c2.7-3.3,7.1-4.9,11.9-4.1c5.2,0.8,9.6,4.1,11.3,8.5c1.5,3.9,1.1,8.3-1,12.4c-2.3,4.5-6.4,7.8-11,9
			c-8.3,2.2-18-2.1-23-10.1c-4.3-6.9-5.3-16.1-2.6-25.1c1.2-4.1,2.9-7.1,5.1-9.2c3.4-3.2,8.4-4.6,15.1-4.4
			c15,0.4,29.2,7.8,36.9,19.2c8.5,12.6,8.7,29.5,0.4,41.1c-8.7,12.2-25.9,17.9-43.7,14.5c-15.8-3-29.9-12-42.4-20
			c-12.2-7.8-26-16.6-41-19.4c-15.3-2.9-32.7,0-51.7,8.7c-12.8,5.9-35,18.9-39.7,40.8C199.4,950.5,198.6,951.2,197.6,951.2z"/>
	</g>
	<g>
		<path d="M329.4,866c-7.4,0-14.8-3-20-8.4c-7.8-8.1-9.2-21.1-3.2-29.4c3.3-4.5,9.1-7.3,15.2-7.4c0,0,0.1,0,0.1,0
			c5.5,0,10.2,2.2,13.2,6.1c0.6,0.8,0.5,2-0.3,2.7l-5.7,5c-0.8,0.7-2.1,0.6-2.8-0.2c-0.7-0.8-0.6-2.1,0.2-2.8l4.2-3.6
			c-2.2-2-5.3-3.2-8.8-3.2c-4.8,0-9.4,2.2-12,5.7c-4.9,6.7-3.6,17.6,2.8,24.3c6.1,6.3,15.7,8.7,24.1,6.1c8.3-2.7,14.8-10.3,16-19
			c1.4-9.7-3.1-20.4-13.5-31.6c-2.2-2.4-4.6-4.8-6.9-7.1c-6.5-6.5-13.2-13.2-17.6-21.6c-6.1-11.7-5.7-28.6,5.3-36.4
			c6.3-4.5,15.4-5.3,23.6-2c6.5,2.6,12.7,7.5,18.3,14.8c5.8,7.4,8.5,14.2,8.2,20.8c-0.4,9.8-8.2,16.3-15.1,16.1
			c-10.8-0.2-16.2-12.3-17.5-23.6c-0.1-1.1,0.6-2.1,1.7-2.2c1.1-0.1,2.1,0.6,2.2,1.7c1.1,9.2,5.4,20,13.6,20.1c0,0,0.1,0,0.1,0
			c6.1,0,10.6-6.5,10.9-12.3c0.2-5.6-2.1-11.5-7.3-18.2c-5.2-6.7-10.8-11.2-16.6-13.5c-7-2.8-14.6-2.2-19.8,1.6
			c-9.3,6.6-9.4,21.1-4.1,31.4c4,7.8,10.5,14.3,16.8,20.6c2.3,2.3,4.8,4.8,7,7.2c11.2,12.2,16.1,23.9,14.5,34.9
			c-1.5,10.1-9,19.1-18.8,22.2C334.9,865.6,332.2,866,329.4,866z"/>
	</g>
	<g>
		<path d="M274.9,752.6c-6.3,0-12.4-2.8-17.3-8.1c-4.7-5-7.8-11.7-8.7-18.5c-1.4-11.4,2.5-22.9,10.2-30c8.5-7.8,21.6-9.6,31.1-4.3
			c10.2,5.8,14.6,19.5,9.3,29.4c-2.7,5.1-8.1,8.7-14.3,9.7c-5.8,0.9-11.4-0.7-15.2-4.3c-3.2-3.1-5-8-4.6-12.7c0.4-4,2.2-7.4,5.2-9.4
			c4.3-2.9,9.8-1.4,13,1.3c3.5,2.8,4.7,6.9,3.3,10.5c-0.4,1-1.6,1.5-2.6,1.1c-1-0.4-1.5-1.6-1.1-2.6c1.2-2.9-1.3-5.2-2.1-5.9
			c-2.2-1.8-5.8-2.8-8.3-1.1c-2,1.3-3.2,3.6-3.5,6.4c-0.3,3.5,1,7.1,3.4,9.4c2.9,2.8,7.2,4,11.8,3.3c5-0.8,9.3-3.6,11.4-7.6
			c4.2-7.9,0.5-19.3-7.7-24c-8-4.5-19.1-2.9-26.4,3.8c-6.8,6.2-10.2,16.4-9,26.5c1.5,11.5,10.9,23.5,22.7,23c4.1-0.2,8-1.8,11.4-3.3
			c11-5.2,19.8-12.2,25.2-20.4c6.4-9.5,8.4-21,5.5-30.7c-1.7-5.5-4.9-10.6-8.1-15.4l-29.4-45.5c-8.4-13-16.9-28-11.8-42.9
			c3.5-10,13.3-17.6,24.4-18.9c10.3-1.2,21.2,2.8,29.2,10.6c6.2,6.1,9.8,13.9,9.9,21.3c0.1,8.7-5,17-12.3,20
			c-7.5,3.1-17,0.3-21.7-6.4c-3.6-5.2-4.1-12.1-1.1-17.1c3.3-5.5,10.8-8,16.3-5.3c2.9,1.4,5.1,4.3,5.9,7.8c0.7,3.2,0,6.4-1.9,8.6
			c-0.7,0.8-2,1-2.8,0.2c-0.8-0.7-1-2-0.2-2.8c1.1-1.3,1.5-3.2,1.1-5.2c-0.5-2.2-1.9-4.1-3.7-5c-3.7-1.8-8.8,0-11.1,3.8
			c-2.2,3.6-1.8,8.9,0.9,12.8c3.6,5.2,11.1,7.4,16.9,5c5.9-2.4,9.9-9.1,9.8-16.2c-0.1-6.4-3.3-13.1-8.7-18.5
			c-7.1-7-16.8-10.6-25.9-9.5c-9.7,1.1-18.1,7.6-21.1,16.2c-4.5,13.1,3.5,27.2,11.3,39.4l29.4,45.5c3.3,5.1,6.7,10.4,8.5,16.4
			c3.3,10.8,1,23.5-6,34c-6,8.9-15,16.3-26.9,21.8c-3.7,1.7-8.1,3.5-12.9,3.7C275.5,752.6,275.2,752.6,274.9,752.6z"/>
	</g>
	<g>
		<path d="M517.9,959.4c-21.8,0-44.1-11-57.3-29.7c-15.9-22.4-18.4-54-6.3-80.5c4.4-9.7,10.6-18.7,16.5-27.3
			c7.5-10.8,15.2-22,19.2-34.5c6-18.9,2.4-40.2-9.2-54.2c-12.5-15.2-34-21.2-51.2-14.3c-12.5,5.1-23,16.8-28.7,32.3
			c-5.2,14.3-6.1,29.9-6.3,44.8c-0.1,7.3,0.1,15,3.9,20.8c6.1,9.4,19.7,10.8,29.3,6.8c8.8-3.7,16.4-11.2,24-23.5
			c7.7-12.6,10.4-22.7,8.6-31.8c-1.2-5.9-5.4-11.5-10.8-14.5c-4.1-2.2-8.4-2.6-12.2-1.1c-4.3,1.7-7.6,5.5-10.6,9.3
			c-5.5,7-11.1,15.3-9.9,24c0.6,4.4,4.3,8.9,8.8,10.6c1.9,0.7,5.4,1.5,8.3-1.1c4.4-3.8,3.6-11.1,2.4-17.7c-0.2-1.1,0.5-2.1,1.6-2.3
			c1.1-0.2,2.1,0.5,2.3,1.6c1.5,7.7,2.2,16.3-3.7,21.4c-3.3,2.9-7.8,3.5-12.4,1.8c-5.9-2.2-10.6-7.9-11.4-13.8
			c-1.3-10.2,4.7-19.4,10.8-27c3.3-4.2,7-8.5,12.2-10.5c4.9-1.9,10.4-1.5,15.6,1.3c6.5,3.5,11.4,10.1,12.8,17.2
			c2,10-1,21.3-9.1,34.6c-8,13.1-16.2,21.1-25.8,25.1c-11.1,4.7-27,2.8-34.2-8.3c-4.4-6.7-4.7-15.1-4.6-23
			c0.2-15.2,1.1-31.3,6.5-46.1c6.1-16.5,17.3-29.1,30.9-34.6c18.7-7.5,42.1-1,55.7,15.4c12.4,15.1,16.3,37.8,9.9,58
			c-4.2,13.1-12.1,24.5-19.7,35.6c-5.9,8.5-11.9,17.3-16.2,26.7c-11.4,25.3-9.1,55.3,6,76.6c15.8,22.3,45.4,33.1,70.4,25.6
			c25.8-7.8,43.8-35.8,39.3-61.2c-4.1-23.6-26.6-42.3-50.5-42.3c-0.4,0-0.8,0-1.2,0c-22,0.6-42.7,17.6-47.1,38.6
			c-4.6,21.7,8.4,45.3,28.9,52.7c20.8,7.4,46.1-3.7,54.1-23.8c6.2-15.5,1.1-34.1-11.6-42.5c-6.7-4.4-15.6-5.4-23.9-2.7
			c-7.4,2.4-13,7.4-15.4,13.7c-2.6,7-0.6,15.6,5.3,22.1c5.3,5.8,12.3,8.2,18.6,6.5c5.2-1.4,10.5-5.9,10.6-11.8
			c0.1-2.7-1.5-5.6-4-7.4c-2-1.4-4.3-1.9-6.2-1.1c-1,0.4-2.2-0.1-2.6-1.2s0.1-2.2,1.2-2.6c3.2-1.2,6.8-0.6,10,1.6
			c3.6,2.6,5.7,6.7,5.6,10.8c-0.2,7.8-7,13.8-13.5,15.6c-7.8,2.2-16.3-0.7-22.7-7.7c-6.9-7.5-9.3-17.8-6.1-26.2
			c2.8-7.5,9.4-13.4,17.9-16.1c9.5-3.1,19.7-1.9,27.4,3.1c14.3,9.3,20,30.1,13.1,47.3c-8.8,22-36.5,34.2-59.2,26.1
			c-22.3-8-36.4-33.6-31.5-57.3c4.8-22.8,27.2-41.2,50.9-41.8c26.3-0.7,51.2,19.8,55.7,45.6c2.4,13.5-0.9,27.8-9,40.4
			c-8,12.4-19.8,21.4-33.1,25.4C529.7,958.6,523.8,959.4,517.9,959.4z"/>
	</g>
	<g>
		<path d="M632,979.7c-17.1,0-34.2-9.9-42.5-25.6c-9.6-18.3-6.7-42.4,7.2-58.7c13.3-15.6,35.4-23.2,56.4-19.4
			c9.8,1.8,18.9,5.8,27.8,9.7c6,2.7,12.3,5.4,18.6,7.4c22,6.9,37-0.1,43.1-8.2c5.3-7,6.9-17.2,4.3-27.9
			c-3.4-14.1-13.4-25.7-25.5-29.6c-13.3-4.3-28.6,1.5-34.3,13c-2.9,5.9-2.7,13.5,0.6,20c2.9,5.8,7.8,9.8,13.3,10.8
			c6.1,1.2,12.5-1.1,15.9-5.6c3.5-4.7,3.1-11.9-0.8-15.6c-2-1.9-5-2.8-8-2.4c-2.7,0.3-5,1.7-6.3,3.7c-0.6,0.9-1.8,1.2-2.8,0.6
			c-0.9-0.6-1.2-1.8-0.6-2.8c1.9-3,5.2-5.1,9.2-5.6c4.2-0.5,8.4,0.8,11.3,3.5c5.4,5.2,6,14.5,1.3,20.9c-4.3,5.7-12.2,8.6-19.8,7.2
			c-6.8-1.3-12.7-6-16.2-13c-3.8-7.7-4.1-16.5-0.6-23.6c6.5-13.2,24-19.9,39.1-15c13.5,4.4,24.3,16.8,28.1,32.5
			c2.9,11.9,1.1,23.3-5,31.3c-11.1,14.6-32.5,14.3-47.5,9.6c-6.5-2-12.9-4.8-19-7.5c-8.6-3.8-17.6-7.7-26.9-9.4
			c-19.6-3.6-40.3,3.5-52.6,18c-12.8,15.1-15.6,37.4-6.7,54.2c9.1,17.2,30.4,27,48.6,22.3c5.2-1.3,9.4-3.5,12.8-6.5
			c7.1-6.4,10.6-17.6,9.5-30.8c-2-23.6-16.9-38-30.6-40.1c-12.1-1.8-25.2,5.6-30,16.9c-4.7,11.3-0.8,25.8,9,33.2
			c6.9,5.2,16,6.6,23,3.4c7.4-3.3,11.9-12.2,9.7-19.4c-1.1-3.6-4.2-6.9-8.1-8.4c-3.3-1.3-6.7-1.3-9.5,0.1c-1.3,4.1,0.7,9.1,4.5,11.2
			c1,0.5,1.3,1.7,0.8,2.7s-1.7,1.3-2.7,0.8c-5.8-3.1-8.6-10.7-6.1-16.8c0.2-0.4,0.5-0.8,0.8-1c3.9-2.3,8.9-2.5,13.6-0.7
			c5.1,2,9.1,6.1,10.5,11c2.7,9.2-2.6,20-11.9,24.2c-8.4,3.8-19,2.2-27.1-3.8c-11.3-8.5-15.7-24.9-10.2-37.9
			c5.5-13.1,20.2-21.4,34.2-19.3c20.2,3,32.4,24.2,34,43.7c1.2,14.4-2.7,26.9-10.8,34.1c-3.8,3.4-8.7,5.9-14.4,7.4
			C639.1,979.2,635.6,979.7,632,979.7z"/>
	</g>
	<g>
		<path d="M971.7,974.9c-0.7,0-1.3-0.3-1.7-0.9c-8-12.7-12.2-28-11.7-43c0.1-5.3,0.8-10.5,1.5-15.6c0.7-5.3,1.4-10.7,1.5-16
			c0.1-7-1-19.8-10-27.3c-4-3.3-10-4.8-15.3-3.8c-4.2,0.8-7.5,3-9.3,6.3c-2,3.7-2.1,8.2-2,12.4c0.1,4.9,0.4,10.5,3.2,14.7
			c3,4.6,9.2,6.9,14,5.2c2.4-0.9,4.6-2.9,5.7-5.5c1.1-2.4,1.2-4.8,0.3-6.9c-0.9-2.2-3.2-4-5.9-4.6c-2.5-0.6-4.8,0-6.4,1.4
			c-0.8,0.8-2.1,0.7-2.8-0.1c-0.7-0.8-0.7-2.1,0.1-2.8c2.6-2.4,6.2-3.2,10-2.4c4,0.9,7.3,3.5,8.7,6.9c1.3,3.1,1.2,6.7-0.3,10.1
			c-1.6,3.6-4.5,6.4-8,7.6c-6.6,2.3-14.6-0.6-18.6-6.7c-3.4-5.1-3.8-11.4-3.8-16.9c-0.1-4.6,0-9.9,2.5-14.4c2.4-4.3,6.6-7.3,12-8.3
			c6.6-1.2,13.7,0.5,18.6,4.7c10.2,8.5,11.5,22.7,11.4,30.4c-0.1,5.6-0.8,11.1-1.5,16.5c-0.7,5-1.3,10.1-1.5,15.2
			c-0.4,14.2,3.5,28.7,11.1,40.7c0.6,0.9,0.3,2.2-0.6,2.8C972.4,974.8,972,974.9,971.7,974.9z"/>
	</g>
	<g>
		<path d="M874,843.3c-8.6,0-17.3-2.4-24.6-7.4c-15.5-10.7-24.2-31-22.1-51.9c0.4-3.8,1.1-8.6,3.8-12.8c5.7-8.8,17.2-10.5,25.4-9.3
			c10.8,1.6,20,7.6,24.7,16.2c5.2,9.5,3.6,22-3.5,28.9c-3.9,3.8-9.6,5.8-15.4,5.5c-5.4-0.3-10-2.6-13.1-6.4
			c-3.4-4.2-4.3-10.4-2.3-16.1c1.8-5.2,5.8-9,10.6-10.1c0.6-0.1,1.3,0,1.8,0.5l9.7,8.8c0.8,0.7,0.9,2,0.1,2.8
			c-0.7,0.8-2,0.9-2.8,0.1l-8.9-8c-3,1-5.5,3.7-6.7,7.2c-1.5,4.4-0.9,9.1,1.6,12.2c2.3,2.9,6,4.6,10.2,4.9c4.7,0.3,9.3-1.4,12.4-4.4
			c5.9-5.8,7.1-16.2,2.8-24.2c-4-7.3-12.3-12.7-21.7-14.1c-7-1-16.8,0.3-21.4,7.6c-1.7,2.7-2.7,6.1-3.2,11
			c-1.9,19.5,6.1,38.4,20.4,48.2c15.4,10.6,38,8.5,49.3-4.6c11.5-13.4,12.4-40.7-8.7-65c-7.6-8.7-16.7-16.3-25.6-23.6
			c-10-8.3-20.4-16.9-28.7-27.3c-23-28.9-27.7-70.6-11.6-103.8c7.5-15.4,18.8-27.8,31.9-34.7c14.9-7.9,32.9-8.8,46.8-2.2
			c23.6,11.1,32.5,39.3,37.1,59.5c4,17.3,6.7,37.1-2.9,53.1c-7.8,13.1-23.4,21.2-39.6,20.7c-14.7-0.4-29.8-8-40.3-20.1
			c-11.9-13.7-16.9-32.3-13.2-48.5c4.1-17.9,18.9-31.8,35.9-34c18.2-2.3,36.5,10.1,40,27.2c1.8,8.7-0.8,18.4-6.9,26
			c-5.8,7.1-13.7,11.1-21.9,11.2c0,0,0,0,0,0c-13.4,0-25.2-10.9-25.2-23.3c0-6.6,3.8-13,10-16.9c5.6-3.5,11.9-4,17.1-1.4
			c0.1,0.1,0.2,0.1,0.3,0.2c4.4,3.3,6,9.5,4.2,15.6c-1.9,6.2-6.6,10.4-12.1,10.7c-1.1,0.1-2.1-0.8-2.1-1.9c-0.1-1.1,0.8-2.1,1.9-2.1
			c4.6-0.3,7.5-4.4,8.5-7.9c1-3.4,0.9-8.3-2.6-11.2c-3.9-1.9-8.7-1.4-13,1.3c-5,3.1-8.1,8.4-8.1,13.5c0,10.1,10.2,19.3,21.2,19.3
			c0,0,0,0,0,0c7,0,13.8-3.5,18.8-9.7c5.4-6.6,7.7-15.1,6.1-22.7c-3.1-14.9-19.7-26.1-35.6-24.1c-15.2,1.9-28.8,15-32.5,31
			c-3.4,14.9,1.3,32.2,12.3,44.9c9.8,11.3,23.8,18.3,37.4,18.7c14.8,0.4,28.9-6.9,36-18.8c8.9-14.8,6.2-33.7,2.4-50.2
			c-4.4-19.4-12.9-46.4-35-56.8c-12.8-6-29.3-5.2-43.2,2.1c-12.4,6.5-23.1,18.2-30.2,32.9c-15.4,31.9-10.9,71.9,11.1,99.6
			c8,10.1,18.3,18.5,28.1,26.7c9,7.4,18.2,15.1,26,24.1c16.9,19.4,25.7,50.7,8.7,70.3C896.8,839,885.5,843.3,874,843.3z"/>
	</g>
	<g>
		<path d="M829.7,935.2c-0.4,0-0.8,0-1.2,0c-16.9-0.4-31.1-9.6-40.1-17.1c-10.9-9.3-17.5-19.2-19.5-29.6
			c-2.5-13.2,3.6-26.8,14.3-31.6c5.3-2.4,11.1-2.6,15.6-2.5c15.1,0.4,34.3,6.4,42.9,22.2c4.5,8.2,4.5,19.2,0.1,28.1
			c-3.6,7.3-9.8,12.1-17,13.2c-5.7,0.9-12-0.4-18.7-3.8c-9.6-4.8-16.3-12.3-18.5-20.6c-2.4-9.1,1.7-21.1,11.5-24.6
			c5-1.7,11-0.3,15.4,3.6c3.8,3.4,5.5,8.1,4.5,12.5c-0.3,1.1-1.3,1.7-2.4,1.5c-1.1-0.3-1.7-1.3-1.5-2.4c0.7-3-0.5-6.1-3.2-8.6
			c-3.2-2.9-7.8-4-11.4-2.8c-6.3,2.2-11.4,10.7-9,19.8c1.9,7.1,7.9,13.7,16.4,18c5.9,3,11.4,4.1,16.3,3.4c5.9-0.9,10.9-4.8,14-11
			c3.9-7.8,3.9-17.3,0-24.4c-7.8-14.3-25.5-19.7-39.5-20.1c-6-0.2-10.2,0.5-13.8,2.1c-7.7,3.5-14.5,14.2-12,27.2
			c1.8,9.5,7.9,18.6,18.1,27.3c8.4,7.2,21.8,15.8,37.6,16.2c14.4,0.4,28.2-7.4,33.5-18.9c7.3-16-1.8-35.4-14.6-46.3
			c-11.1-9.4-25.1-15-38.7-20.4c-3.1-1.2-6.3-2.5-9.4-3.8c-36.1-15.1-62.1-35.2-77.4-59.8c-6.6-10.7-13.9-27-10.9-44.1
			c3-16.9,16.6-30.1,31.8-30.7c7.1-0.3,14.6,2,22.2,6.9c14.4,9.1,24.7,24.6,27.6,41.4c1.7,10.1-0.9,21.5-6.5,28.5
			c-3.8,4.7-8.6,7.2-14.2,7.5c-13.8,0.6-22.7-13.7-26.8-22.3c-4.9-10.3-6.9-23.4,2-29.7c3.2-2.2,7.3-2.9,11.5-1.8
			c4.9,1.2,9.4,4.7,11.5,9.1c3.5,6.9,2.8,16.2-1.8,24.8c-0.3,0.6-0.8,0.9-1.5,1c-0.6,0.1-1.3-0.1-1.7-0.6l-6.4-6.4
			c-0.8-0.8-0.8-2,0-2.8c0.8-0.8,2-0.8,2.8,0l4.4,4.4c2.9-6.7,3.1-13.6,0.5-18.7c-1.7-3.4-5.1-6-8.9-7c-3.1-0.8-6-0.3-8.2,1.2
			c-6.9,4.8-4.8,15.9-0.7,24.7c3.6,7.7,11.4,20.5,23,20c4.4-0.2,8.2-2.2,11.2-6c5-6.1,7.2-16.3,5.7-25.3
			c-2.7-15.7-12.4-30.2-25.8-38.7c-6.9-4.4-13.6-6.5-19.9-6.2c-11.5,0.4-25.1,10.8-28,27.4c-2.8,15.9,4.1,31.2,10.3,41.3
			c14.8,23.9,40.2,43.5,75.5,58.2c3.1,1.3,6.3,2.6,9.4,3.8c13.9,5.5,28.2,11.2,39.8,21.1c14,11.9,23.8,33.2,15.7,51
			C859.9,926.7,845.5,935.2,829.7,935.2z"/>
	</g>
	<g>
		<path d="M611.2,839.1c-39.7,0-80-25.9-98.5-64.5c-6.1-12.8-12.2-31.9-6.4-50.3c6.2-19.8,25.8-35.2,49.7-39.1
			c18.6-3,38.9,0,63.9,9.6c29.1,11.2,59.3,34,56.4,64.7c-1.5,16.1-12.8,31.5-29.6,40.2c-13.1,6.8-28.8,9.8-49.6,9.7
			c-23.6-0.2-41.9-4.7-55.8-13.8c-17.9-11.7-27.8-32.6-24.1-50.6c2-9.8,7.8-18.6,16.7-25.5c8.2-6.3,18.5-10.4,28.9-11.6
			c17.5-1.9,36.2,2.6,58.8,14.3c8.6,4.4,20.2,11.7,22.3,23.4c1.7,9.4-4.1,22.5-18.1,28c-10.8,4.3-22.8,3.3-34,1.5
			c-9.8-1.5-23.3-6.5-29.3-15.5c-2.8-4.2-3.6-8.7-2.5-13.5c2.5-10.2,14-15.4,23.7-14.5c9.8,0.9,18.3,6.3,25.8,11.1
			c0.9,0.6,1.2,1.8,0.6,2.8c-0.6,0.9-1.8,1.2-2.8,0.6c-7.1-4.5-15.2-9.7-24.1-10.5c-7.9-0.7-17.6,3.4-19.5,11.4
			c-0.9,3.6-0.2,7.1,1.9,10.3c4.9,7.4,16.9,12.2,26.6,13.8c10.7,1.7,22,2.7,31.9-1.3c11.6-4.6,17.1-15.6,15.6-23.6
			c-1.8-9.9-11.8-16.2-20.2-20.6c-21.9-11.3-39.9-15.7-56.6-13.9c-17.8,2-38,14.2-42.1,33.9c-3.4,16.5,5.8,35.6,22.3,46.4
			c13.2,8.7,30.8,13,53.6,13.1c20.1,0.1,35.2-2.8,47.7-9.3c15.6-8.1,26.1-22.2,27.4-37c2.6-28.5-26.1-50-53.9-60.6
			c-24.4-9.3-44-12.3-61.8-9.4c-22.1,3.6-40.8,18.2-46.5,36.3c-5.4,17.2,0.4,35.3,6.2,47.4c19.3,40.3,63.2,66.3,104.3,61.7
			c20.6-2.3,40.8-13.2,55.4-29.8c14.8-16.9,22.3-38.1,20.4-58.1c-3.1-33.1-25.9-57.5-50-83.3c-18.4-19.7-37.4-40.1-47.2-64.9
			c-3.4-8.6-4.7-15.7-4-22.2c0.8-7.8,4.6-15.6,11.2-23.3c18.8-21.9,51.6-31.7,81.6-24.5c27.7,6.7,52.7,27.1,66.9,54.7
			c6.3,12.4,15.7,36.8,7.1,61.3c-7.6,21.6-29.3,36.1-49.5,33.1c-8.5-1.3-17-5.4-26.7-12.8c-10.2-7.9-27.3-24.3-27.4-46
			c-0.1-10.4,5.5-21.3,14.2-27.9c7.1-5.3,15.2-7.1,22.7-4.9c5.7,1.7,11.1,5.4,16.5,11.4c7.2,8,10.8,16,10.9,23.9
			c0,8.9-6.1,19.1-16,20.3c-5.1,0.6-10.4-2.1-13.5-6.8c-2.7-4.1-3.1-8.7-1-12.5c0.5-1,1.8-1.3,2.7-0.8c1,0.5,1.3,1.8,0.8,2.7
			c-1.4,2.5-1,5.5,0.9,8.3c2.3,3.4,6.2,5.5,9.8,5c7.5-0.9,12.5-9.1,12.5-16.3c0-6.9-3.3-14-9.8-21.2c-4.9-5.5-9.7-8.8-14.6-10.3
			c-6.3-1.9-13.1-0.4-19.2,4.2c-7.7,5.8-12.7,15.5-12.6,24.7c0.1,20,16.2,35.4,25.8,42.8c9.1,7,17,10.9,24.9,12.1
			c16.1,2.4,37.4-8.3,45.1-30.4c8.1-23.1-0.8-46.3-6.9-58.1c-13.6-26.6-37.6-46.3-64.2-52.7c-28.5-6.9-59.7,2.5-77.6,23.2
			c-6.1,7.1-9.6,14.2-10.3,21.1c-0.6,5.8,0.6,12.3,3.7,20.3c9.5,24.1,28.3,44.2,46.4,63.6c23.5,25.2,47.8,51.3,51.1,85.7
			c2,21.1-5.8,43.4-21.4,61.1c-15.3,17.4-36.4,28.7-58,31.2C617.8,839,614.5,839.1,611.2,839.1z"/>
	</g>
	<g>
		<path d="M794.8,682.8c-0.8,0-1.5-0.5-1.8-1.2c-18.2-42.2-17.2-92,2.6-133.5c15.1-31.5,39.5-51.3,65.4-52.8
			c12.9-0.8,24.8,3.6,31.7,11.6c9.2,10.6,8.9,27.9-0.7,37.6c-4.8,4.9-11.8,7.6-19.3,7.4c-7.1-0.2-13.6-3.1-17.9-7.9
			c-4.8-5.5-6.6-13.1-4.4-19.3c2.4-7.1,10.2-11.6,17-9.9c3.6,0.9,6.8,3.9,8.3,7.7c1.4,3.5,1.1,7.2-0.8,10c-0.2,0.3-0.5,0.5-0.8,0.7
			c-3.7,1.8-8.3,1.1-11.2-1.8c-0.8-0.8-0.8-2,0-2.8c0.8-0.8,2-0.8,2.8,0c1.5,1.5,4.1,2,6.1,1.3c0.9-1.7,0.9-3.8,0.1-5.9
			c-1-2.6-3.1-4.6-5.5-5.2c-4.7-1.2-10.5,2.2-12.2,7.3c-1.7,4.9-0.2,10.9,3.7,15.3c3.5,4,9,6.4,15,6.6c6.3,0.2,12.3-2.1,16.3-6.2
			c8-8.2,8.3-23.3,0.5-32.2c-6.1-7.1-16.8-10.9-28.5-10.2c-24.4,1.4-47.6,20.3-62.1,50.5c-19.3,40.4-20.3,89-2.5,130.2
			c0.4,1,0,2.2-1,2.6C795.4,682.7,795.1,682.8,794.8,682.8z"/>
	</g>
	<g>
		<path d="M387.4,447.9c-8,0-15.8-1.2-22.9-3.5c-12.4-4.1-21.7-11.6-26.7-21.7c-7.8-15.6-3.7-33.8,1.1-46.2
			c8.4-21.9,23-37.3,40-42.2c10.8-3.1,23.5-0.9,33.2,5.7c8,5.5,12.8,13.2,13.5,21.8c0.6,7-1.4,14.5-5.6,21.9
			c-6.5,11.2-16.7,18.4-27.1,19.2c-6.5,0.5-13.2-2-18.1-6.6c-4.2-3.9-6.4-8.9-6.3-14c0.1-7.2,5.7-12.6,11.3-14.8
			c5.8-2.3,11.6-1.3,15.3,2.6c0.8,0.8,0.7,2.1,0,2.8c-0.8,0.8-2.1,0.7-2.8,0c-2.6-2.7-6.7-3.3-11-1.6c-4.3,1.7-8.6,5.8-8.7,11.2
			c-0.1,4,1.7,7.9,5.1,11c4,3.8,9.8,5.9,15.1,5.5c9.2-0.7,18.1-7.1,24-17.2c2.7-4.6,5.8-11.8,5.1-19.5c-0.6-7.4-4.8-14-11.8-18.8
			c-8.7-6-20.2-8-29.8-5.2c-15.8,4.6-29.5,19.1-37.4,39.8c-4.5,11.7-8.4,28.7-1.2,43c7.2,14.5,28,26.9,58.2,22
			c20.9-3.4,41.3-14.6,56.1-30.9c15.4-17,23.3-37.5,22.1-57.8c-1.6-26.9-18.3-43.4-33.2-47.3c-12.5-3.3-25.1,0.2-38.4,3.9
			c-10,2.8-20.3,5.6-30.7,5.4c-23.2-0.4-45.4-17.7-51.6-40.4c-6.2-22.4,3.4-48.4,22.8-61.7c19.2-13.2,46.4-13.2,66-0.1
			c11.7,7.8,22.3,22.8,19.7,38.6c-1,6.2-4,12.1-8.6,17.1c-7.3,8.1-18.9,12.4-31.1,11.6c-12.1-0.8-23.1-6.6-29.3-15.5
			c-7.3-10.4-8.3-23.8-2.5-33.4c3.3-5.4,9.1-9.4,15.7-10.8c5.8-1.2,11.5-0.1,15.8,3.1c5,3.7,7.6,10.5,6.7,17.4
			c-0.9,6.3-4.5,11.1-9.7,13c-1,0.4-2.2-0.2-2.6-1.2c-0.4-1,0.2-2.2,1.2-2.6c3.8-1.4,6.4-5.1,7.1-9.8c0.8-5.5-1.2-10.8-5.1-13.6
			c-3.4-2.5-7.9-3.3-12.7-2.4c-5.5,1.1-10.3,4.4-13,8.9c-5,8.3-4,19.9,2.3,29.1c5.6,7.9,15.4,13.1,26.3,13.8
			c10.9,0.7,21.3-3.2,27.9-10.3c4.1-4.5,6.7-9.7,7.6-15.1c2.3-14-7.3-27.5-18-34.6c-18.3-12.2-43.6-12.2-61.5,0.1
			c-18,12.4-27,36.5-21.2,57.3c5.8,21,26.3,37.1,47.8,37.4c9.9,0.2,19.9-2.6,29.5-5.3c13.2-3.7,26.9-7.5,40.5-3.9
			c10.2,2.7,19.2,9.4,25.8,19.4c6,9.1,9.7,20.3,10.3,31.5c1.2,21.4-7,43-23.2,60.8c-15.4,16.9-36.7,28.6-58.4,32.1
			C396.1,447.6,391.7,447.9,387.4,447.9z"/>
	</g>
	<g>
		<path d="M370,561.9c-3.9,0-7.7-0.7-11.4-2.2c-10.1-4.1-18.3-13.7-21.3-25c-1.9-7.1-0.6-15.5,3.2-20.9c2.6-3.7,6.1-5.8,10.3-6.2
			c4.9-0.4,9.4,1.8,13.6,4.2c5.8,3.4,12.2,7.8,15.3,14.7c3.1,6.9,1.6,16.7-5.7,20.4c-3.8,1.9-8.9,1-12.5-2.3c-3-2.8-4-6.6-2.6-9.9
			c0.4-1,1.6-1.5,2.6-1.1c1,0.4,1.5,1.6,1.1,2.6c-1.1,2.5,0.8,4.6,1.7,5.4c2,1.8,5.3,3,7.9,1.7c5.1-2.6,6.1-10.1,3.8-15.2
			c-2.7-5.9-8.4-9.8-13.7-12.9c-3.6-2.1-7.4-4-11.2-3.7c-3,0.3-5.5,1.8-7.4,4.5c-3.2,4.5-4.2,11.6-2.6,17.6
			c2.7,10.2,9.9,18.7,18.9,22.3c9.5,3.8,21,1.7,27.8-5.1c14.5-14.5,4.2-39.6,0.7-47c-10.8-22.7-28-42.5-49.8-57.2
			s-46.6-23.3-71.7-24.8c-1.1-0.1-1.9-1-1.9-2.1c0.1-1.1,1-1.9,2.1-1.9c25.8,1.5,51.3,10.4,73.7,25.5c22.4,15.1,40.1,35.5,51.2,58.8
			c3,6.4,6.7,16.2,7.1,26.7c0.4,10.4-2.5,18.7-8.6,24.8C385.4,559,377.7,561.9,370,561.9z"/>
	</g>
	<g>
		<path d="M367.1,714.5c-2.3,0-4.5-0.3-6.7-0.8c-8.9-2.2-17.2-8.9-24-19.4c-5.4-8.4-11.7-21.5-10.5-36.6c1.1-13.8,8.9-26.4,20-32.1
			c10.3-5.3,23.8-4.9,35.2,0.9c12.5,6.4,20.1,17.4,24.4,25.6c0.7,1.3,1.3,2.6,1.9,3.9c1.6,3.3,3.1,6.4,5.2,9.2
			c3.7,5,9,8.7,13.3,11.4c15.4,9.7,30.1,13.8,43.5,12.4c13.8-1.5,29.4-11.1,32.5-26.5c1.7-8.1-0.6-16.6-6.3-24
			c-6.9-8.9-17.7-14.7-28.3-15.3c-5.5-0.3-10.1,0.6-13.6,2.7c-8.1,4.9-10.1,15.9-7.9,24.2c1.7,6.3,5.3,11.5,10,14.3
			c5.2,3.1,11.8,2.9,16.1-0.4c2.2-1.7,3.8-4.5,4.1-7.5c0.3-2.6-0.3-5.1-1.8-6.9c-1.6-2-4.4-3.1-7.4-2.8c-2.6,0.3-4.7,1.5-5.7,3.5
			c-0.5,1-1.7,1.4-2.7,0.9c-1-0.5-1.4-1.7-0.9-2.7c1.6-3.1,4.9-5.2,8.9-5.6c4.3-0.4,8.4,1.2,10.9,4.3c2.1,2.7,3.1,6.2,2.6,9.9
			c-0.5,4.1-2.5,7.8-5.6,10.2c-5.5,4.3-14,4.6-20.6,0.7c-5.6-3.3-10-9.4-11.9-16.7c-2.6-9.8-0.1-22.8,9.7-28.7
			c4.2-2.5,9.5-3.6,15.9-3.3c11.7,0.6,23.7,7,31.3,16.8c6.5,8.4,9,18.1,7.1,27.3c-3.1,15.3-18.3,27.8-36,29.7
			c-14.3,1.5-29.8-2.8-46-13c-4.6-2.9-10.3-6.9-14.4-12.4c-2.3-3.1-3.9-6.5-5.5-9.9c-0.6-1.3-1.2-2.6-1.9-3.8
			c-3.9-7.6-11.1-17.9-22.6-23.9c-10.3-5.3-22.4-5.6-31.5-0.9c-9.9,5.1-16.9,16.4-17.9,28.8c-1.1,14,4.8,26.3,9.9,34.1
			c4.4,6.7,11.6,15.2,21.7,17.7c9.7,2.4,20.9-1.7,27.3-9.9c6.2-8,7.8-19.5,4.1-29.4c-4.5-12.2-17.1-20.3-28.6-18.4
			c-6,1-11.6,5.4-14.6,11.5c-2.6,5.3-2.7,10.9-0.3,15.3c3,5.7,9.9,9.2,16.3,8.5c3.9-0.4,7.6-2.7,10-6c2-2.8,2.8-5.9,2.2-8.8
			c-0.8-3.8-4.3-6.3-7.5-7.1c-3.3-0.8-6.3-0.1-8,2.1c-0.7,0.9-2,1-2.8,0.3c-0.8-0.7-1-2-0.3-2.8c2.8-3.3,7.3-4.6,12.1-3.4
			c5.4,1.4,9.5,5.4,10.5,10.2c0.8,4-0.2,8.3-2.9,12c-3.1,4.2-7.9,7-12.8,7.6c-8.1,0.9-16.4-3.5-20.2-10.6c-3-5.6-2.9-12.5,0.2-19
			c3.5-7.2,10.2-12.5,17.5-13.7c13.3-2.2,27.8,6.9,33,20.9c4.1,11.2,2.3,24.2-4.7,33.3C386,710,376.5,714.5,367.1,714.5z"/>
	</g>
	<g>
		<path d="M568.2,671c-8.4,0-16.9-2-24.1-5.8c-9.3-5-15.6-12.4-18.2-21.6c-4.6-16.5,5.5-35.8,21.8-41.3c16.2-5.5,36,3.6,42.4,19.5
			c3,7.6,2.6,15.4-1.2,20.9c-3.2,4.7-9,7.8-16.2,8.8c-8.4,1.2-16.3-0.8-21.6-5.5c-6.4-5.6-8.2-15.2-4.2-21.8c2.2-3.6,6.5-6,11.2-6.3
			c4.2-0.2,7.9,1.4,10.2,4.4c0.7,0.9,0.5,2.1-0.4,2.8c-0.9,0.7-2.1,0.5-2.8-0.4c-1.5-1.9-3.9-2.9-6.8-2.8c-3.3,0.2-6.4,1.9-8,4.4
			c-3,4.9-1.5,12.4,3.4,16.7c4.4,3.9,11.2,5.6,18.4,4.6c3.5-0.5,9.9-2.1,13.4-7.1c3-4.4,3.3-10.8,0.7-17.1
			c-5.6-14-23.1-22.1-37.4-17.2c-14.3,4.9-23.3,21.9-19.2,36.4c2.9,10.2,10.4,16,16.2,19.1c10.8,5.8,24.7,7,36.3,3.2
			c6.2-2,14.4-6,18.6-13.6c7.4-13.3-0.9-30.1-11.2-41.5c-25.1-27.8-63.8-42.1-101-37.4c-2,0.3-4,0.6-5.9,0.9
			c-7.5,1.2-15.3,2.4-23,0.8c-21.5-4.3-33.2-27.9-34.9-48.1c-1.4-16.5,2.1-31.5,9.9-42.3c9.4-13,25.7-19.6,39.5-16
			c7.6,2,14.9,6.9,21.1,14.4c10.5,12.4,17.3,33.4,7.5,50.1c-4.9,8.3-14.9,14-25.4,14.3c-8.9,0.3-16.6-3.3-21-9.7
			c-3-4.5-4.7-10.2-4.8-16.9c-0.2-8.2,2.2-14.8,6.8-18.4c5.6-4.4,14.5-3.7,19.3,1.5c4.9,5.2,5.1,14,0.4,19.4c-0.7,0.8-2,0.9-2.8,0.2
			c-0.8-0.7-0.9-2-0.2-2.8c3.3-3.8,3.2-10.4-0.3-14c-3.5-3.7-10-4.2-14-1.1c-4.9,3.8-5.4,11.1-5.3,15.1c0.2,6,1.6,11,4.2,14.8
			c3.6,5.3,10,8.2,17.5,8c9.2-0.3,17.9-5.1,22.1-12.3c6.2-10.5,6.6-29.2-7.1-45.5c-4-4.7-10.5-10.8-19.1-13.1
			c-12.3-3.2-26.8,2.7-35.3,14.5c-7.2,10-10.5,24.1-9.2,39.6c1.6,18.7,12.2,40.7,31.7,44.5c7,1.4,14.4,0.2,21.6-0.9
			c2-0.3,4-0.6,6-0.9c38.5-5,78.5,9.8,104.5,38.6c11.2,12.4,20.1,31,11.7,46.1c-4.9,8.7-14,13.2-20.9,15.4
			C578.7,670.3,573.4,671,568.2,671z"/>
	</g>
	<g>
		<path d="M415.4,623.4c-0.6,0-1.3-0.3-1.7-0.9c-0.6-0.9-0.4-2.2,0.5-2.8c8.6-5.8,12.4-17.9,8.5-27.6c-3.9-9.7-14.9-15.9-25.2-14.2
			c-7.7,1.3-14.1,6.9-15.8,13.7c-1.7,7.1,2.7,15.2,9.3,16.9c2.7,0.7,5.9,0.5,9.8-0.6c2.4-0.7,10.4-3.3,11.8-9.6
			c0.6-2.6-1.3-5.4-3.3-6.7c-0.8-0.5-2.4-1.2-3.9-0.5c-0.7,2.2-0.2,4.8,1.3,6.5c0.7,0.8,0.6,2.1-0.2,2.8c-0.8,0.7-2.1,0.6-2.8-0.2
			c-2.6-3-3.3-7.5-1.8-11.2c0.1-0.3,0.4-0.6,0.6-0.8c2.5-1.9,5.9-2,8.9,0c3.2,2.1,6,6.5,5,10.9c-1.8,8.2-10.8,11.5-14.6,12.6
			c-4.6,1.3-8.5,1.5-11.9,0.6c-8.7-2.2-14.4-12.3-12.2-21.7c2-8.3,9.8-15.2,19-16.7c12.1-2,25,5.3,29.6,16.6
			c4.5,11.4,0.1,25.6-10,32.4C416.2,623.3,415.8,623.4,415.4,623.4z"/>
	</g>
	<g>
		<path d="M759.8,533.8c-1.8,0-3.8-0.2-6-0.7c-17.6-3.9-32.9-17.8-46.7-42.3c-2.3-4-3.9-10.3-2-14.5c0.9-2.1,2.6-3.5,4.8-4
			c2.6-0.6,5.1,0.3,7.2,1.4c12.3,5.9,21.7,17.9,24.6,31.2c0.2,0.7-0.1,1.5-0.7,2c-3,2.5-7.4,2.7-11.2,0.4c-3.9-2.2-5.9-6.1-5.3-9.9
			c0.2-1.1,1.2-1.8,2.3-1.6c1.1,0.2,1.8,1.2,1.6,2.3c-0.5,2.6,1.5,4.7,3.3,5.8c1.5,0.9,3.8,1.5,5.7,0.6c-3-11.6-11.3-21.9-22.1-27.1
			c-1.5-0.7-3.1-1.4-4.6-1.1c-1,0.2-1.7,0.8-2.1,1.7c-1.1,2.4-0.3,7.1,1.9,10.9c13.3,23.5,27.7,36.6,44.1,40.3
			c4.1,0.9,7.3,0.9,9.8-0.2c2.5-1.1,4.3-3,5.4-5.9c1.8-4.8,1.1-11.8-1.6-17.3c-4-8-10-14.5-16.4-21.3c-4.3-4.6-8.7-9.3-12.4-14.5
			c-13.2-18.6-17.3-44.1-11-68.2c2.7-10.3,8.5-24.6,20.7-34.1c16.9-13.1,43-12.9,60.9,0.6c16.8,12.7,25.5,35.9,21.7,57.9
			c-3.2,18.4-15.1,33.9-30.3,39.5c-19.2,7-42.8-2.5-52.7-21.3c-9.3-17.7-5.8-41.7,8.3-57.2c4.4-4.9,9.3-8.4,14.4-10.5
			c11.7-4.7,26.3-1.9,36.4,7.1c9.2,8.1,14.6,21,14.5,34.4c-0.1,17-9.3,27.6-18.4,30.5c-6.1,2-12.6,1-18.7-2.6
			c-8.4-5.1-15-14.9-16.8-25.1c-1.9-10.6,1.4-23.1,11.4-26.2c7.1-2.3,15.5,1.6,19.1,8.8c3.1,6.3,2.6,14.3-1.5,21.1
			c-0.6,0.9-1.8,1.2-2.7,0.7c-0.9-0.6-1.2-1.8-0.7-2.7c3.3-5.5,3.8-12.2,1.4-17.2c-2.7-5.4-9.1-8.4-14.3-6.7
			c-7.7,2.4-10.2,13-8.7,21.7c1.6,9.1,7.5,17.8,14.9,22.4c3.5,2.1,9.1,4.3,15.4,2.2c10.7-3.4,15.6-16.2,15.6-26.7
			c0-12.3-4.9-24-13.2-31.4c-9-8-21.9-10.5-32.2-6.4c-4.6,1.8-8.9,5-13,9.5c-13,14.3-16.3,36.5-7.7,52.7c9,17.1,30.4,25.8,47.8,19.4
			c13.9-5.1,24.7-19.4,27.7-36.4c3.6-20.5-4.5-42.2-20.1-54c-16.4-12.4-40.5-12.7-56-0.7c-11.3,8.8-16.7,22.2-19.2,31.9
			c-6,23-2.1,47.3,10.4,64.9c3.6,5,7.9,9.6,12.1,14.1c6.3,6.8,12.9,13.7,17.1,22.3c3.3,6.6,4,14.6,1.8,20.5c-1.4,3.9-4,6.7-7.5,8.2
			C764.1,533.4,762.1,533.8,759.8,533.8z"/>
	</g>
	<g>
		<path d="M499.5,303.9c-0.7,0-1.3,0-1.9,0c-6.6-0.3-12.1-1.9-16.3-4.8c-8.1-5.6-12-17.1-9.4-27.9c2.7-11.2,10.9-19.3,17.3-24.2
			c1.2-0.9,2.4-1.8,3.6-2.6c2.8-2,5.5-3.9,7.8-6.2c6.1-6.2,9.2-15.7,8.6-26c-0.7-11.7-6.2-22.5-14.7-29c-9.1-6.9-21.6-8.3-31.1-3.4
			c-10,5.1-15.5,17-12.7,27.2c1.4,5.1,5.3,9.8,10.4,12.5c4.7,2.5,10,3.1,14.5,1.6c4.9-1.6,8.9-5.9,10.7-11.4
			c1.7-5.2,1.1-10.3-1.7-14.1c-1.8-2.5-4.2-4-6.3-4c0,0,0,0,0,0c-1.2,0-2.4,0.6-3.2,1.5c-0.4,0.4-0.9,1.2-0.8,2.2
			c0.1,1.1-0.6,2.1-1.7,2.2c-1.1,0.1-2.1-0.6-2.2-1.7c-0.3-1.9,0.4-3.8,1.8-5.4c1.6-1.8,4-2.8,6.3-2.9c3.5,0,7,2.1,9.6,5.7
			c3.5,4.9,4.3,11.3,2.2,17.7c-2.2,6.7-7.1,12-13.2,14c-5.6,1.8-12,1.2-17.7-1.9c-6.1-3.3-10.6-8.7-12.3-14.9
			c-3.3-11.9,3.2-25.9,14.8-31.8c10.8-5.5,25-4,35.3,3.8c9.4,7.1,15.5,19,16.3,31.9c0.7,11.4-2.9,22-9.8,29
			c-2.5,2.6-5.5,4.7-8.3,6.7c-1.2,0.8-2.4,1.7-3.5,2.6c-5.9,4.5-13.4,11.9-15.8,21.9c-2.2,9.3,1,19,7.8,23.7
			c3.5,2.5,8.3,3.8,14.2,4.1c5.7,0.2,13.8-0.5,20.4-5.4c5.9-4.4,9.1-11.6,8-17.9c-1.2-6.7-7.9-12-14.1-11c-3.1,0.5-6,2.9-7.4,6.1
			c-1.3,2.9-1.2,5.9,0.3,8.1c0.6,0.9,0.3,2.2-0.6,2.8c-0.9,0.6-2.2,0.3-2.8-0.6c-2.2-3.4-2.4-7.7-0.6-11.9c2-4.5,6-7.8,10.4-8.5
			c8.3-1.3,17.1,5.3,18.7,14.2c1.4,7.8-2.5,16.6-9.6,21.8C513.7,302.7,505.7,303.9,499.5,303.9z"/>
	</g>
	<g>
		<path d="M684.4,411.3c-1.2,0-2.5,0-3.7-0.1c-19.3-1.4-37.6-12.9-47.8-30.2c-12.4-21-11.3-49.6,2.8-69.6c3.5-5,7.7-9.4,11.8-13.7
			c3.5-3.7,7.2-7.6,10.2-11.7c15.4-20.4,16.9-49.3,3.5-68.7c-7.1-10.3-18.6-17.5-31.8-19.9c-11.9-2.2-23.4,0.1-32.2,6.3
			c-17,11.9-23.6,37.7-15.5,59.9c2.7,7.3,6.4,12.9,10.9,16.7c12,9.9,30.3,7.3,43.5,1.6c8.1-3.5,13.9-7.6,17.9-12.5
			c7.3-9.1,8.6-22.6,3.1-32.8c-5.4-10.3-17.3-16.8-28.9-16c-7.7,0.6-14.6,4.4-18.1,10.1c-3.8,6.2-3,14.5,1.7,19
			c2.4,2.3,6.2,3.4,9.9,2.8c3.2-0.5,5.9-2.1,7.3-4.6c0.6-1,1.8-1.3,2.7-0.7s1.3,1.8,0.7,2.7c-2,3.5-5.7,5.9-10.2,6.5
			c-4.9,0.7-9.8-0.7-13.2-3.9c-6.1-5.7-7.2-16.3-2.4-24c4.2-6.8,12.1-11.3,21.2-12c13.1-1,26.6,6.5,32.7,18.1
			c6.1,11.6,4.7,26.9-3.6,37.2c-4.4,5.4-10.7,9.9-19.4,13.7c-18.4,8-36.2,7.2-47.6-2.2c-5.1-4.2-9.2-10.4-12.1-18.4
			c-8.8-23.9-1.5-51.6,16.9-64.6c9.8-6.8,22.3-9.3,35.3-7c14.2,2.6,26.7,10.4,34.3,21.6c14.2,20.8,12.7,51.6-3.7,73.4
			c-3.2,4.3-6.9,8.2-10.5,12c-4,4.2-8.1,8.6-11.4,13.3c-13.2,18.7-14.3,45.5-2.6,65.2c9.5,16.1,26.6,26.9,44.7,28.2
			c18.4,1.3,37.2-7.9,46.8-23c5.4-8.4,7.4-17.7,5.6-25.7c-1.7-7.6-7-15-15.7-21.9c-7.6-6-14.5-9.2-21.2-9.7
			c-11.4-0.9-23.1,6.9-26.6,17.8c-3.5,10.9,1.4,24,11.2,30c6.5,4,16.5,4.4,21.3-1.9c2.5-3.3,1.6-8.1-0.5-11.2
			c-0.9-1.3-3.4-4.2-7-3.1c-1.1,0.3-2.2-0.3-2.5-1.3c-0.3-1.1,0.3-2.2,1.3-2.5c4.2-1.3,8.6,0.5,11.5,4.7c2.9,4.1,4.2,10.9,0.4,15.9
			c-6.1,8-18.5,7.8-26.5,2.9c-11.5-7-17-21.8-12.9-34.6c4.1-12.8,17.3-21.6,30.7-20.5c7.5,0.6,15.2,4.1,23.4,10.5
			c9.5,7.5,15.2,15.6,17.2,24.1c2,9-0.2,19.5-6.1,28.7C721.4,401.6,702.9,411.3,684.4,411.3z"/>
	</g>
	<g>
		<path d="M620.5,176.6c-2.6,0-5.3-0.5-7.7-1.5c-8.4-3.4-14.6-12.1-15.7-22.2c-0.6-5.2,0.3-9.8,2.4-13.4c3.3-5.4,10-8.9,17.7-9.1
			c6.6-0.2,13.2,1.9,19,3.7c1.1,0.3,1.6,1.5,1.3,2.5c-0.3,1.1-1.5,1.6-2.5,1.3c-5.7-1.8-11.6-3.7-17.6-3.5
			c-4.9,0.1-11.3,2.1-14.3,7.2c-2.1,3.6-2.2,7.9-1.9,10.8c1,8.6,6.2,16,13.3,18.9c7.5,3.1,16.9,0.1,20.4-6.5c1.8-3.3,1.8-7.8,0-11.6
			c-1.6-3.4-4.4-5.8-7.5-6.4c-2.2-0.4-4.9,0-5.9,1.8c-0.4,0.7-0.2,1.8,0.4,2.5c0.3,0.3,0.7,0.7,1.1,0.5c1-0.3,2.2,0.2,2.5,1.3
			c0.3,1.1-0.2,2.2-1.3,2.5c-1.9,0.6-4-0.1-5.4-1.8c-1.7-2-2-4.9-0.8-7c2-3.6,6.6-4.5,10.2-3.8c4.4,0.9,8.2,4.1,10.4,8.7
			c2.3,5,2.3,10.7-0.1,15.2C635,172.9,627.8,176.6,620.5,176.6z"/>
	</g>
	<g>
		<path d="M531.1,383.6c-0.9,0-1.9-0.1-2.9-0.3c-11.7-2.2-16.3-16.9-17.8-21.8c-2.3-7.5-4.5-15.6-3.1-23.8c1.4-8,7.5-16.6,16.4-17.6
			c11.1-1.3,20.1,9.6,21.6,20.5c1,7.1-1.1,13.1-5.4,16.1c-3,2-7.4,1.9-10.7-0.2c-2.7-1.7-4-4.5-3.5-7.3c0.2-1.1,1.2-1.8,2.3-1.6
			c1.1,0.2,1.8,1.2,1.6,2.3c-0.3,1.6,0.9,2.7,1.7,3.2c1.6,1.1,4.4,1.5,6.2,0.3c3.6-2.5,4.3-8,3.7-12.3
			c-1.5-11.1-10.2-17.9-17.2-17.1c-7,0.8-11.8,7.8-13,14.3c-1.3,7.3,0.8,14.8,3,21.9c3.7,11.8,8.4,17.8,14.7,19
			c6.7,1.3,13-4,15.4-6.3c7.9-7.6,13.3-19.1,15.7-33.2c6.6-39.6-11.7-79.8-26.4-112c-0.5-1,0-2.2,1-2.6c1-0.5,2.2,0,2.6,1
			c14.9,32.8,33.5,73.6,26.7,114.4c-2.5,15-8.3,27.3-16.9,35.5C544,379,538.1,383.6,531.1,383.6z"/>
	</g>
	<g>
		<path d="M663.2,466.2c-0.4,0-0.7,0-1.1,0c-31.5-0.7-62.3-24.6-74.9-58.3c-10.3-27.5-9.9-61.4,1.2-97.9c0.3-1.1,1.4-1.7,2.5-1.3
			c1.1,0.3,1.7,1.4,1.3,2.5c-10.9,35.7-11.3,68.7-1.3,95.4c12.1,32.2,41.4,55.1,71.3,55.7c2.6,0.1,5.6-0.1,8-1.3
			c4.4-2.2,6-7.7,6.1-11.7c0.2-11.9-10.7-23.3-23.7-24.9c-6.2-0.7-14,1.1-16.6,7c-0.9,2.2-0.9,4.8,0.1,7.3c1,2.5,2.9,4.4,5.1,5.2
			c2.2,0.9,4.9,0.8,7.3-0.3c2.4-1.1,4.3-3,5.1-5.2c0.4-1,1.5-1.6,2.6-1.2c1,0.4,1.6,1.5,1.2,2.6c-1.2,3.2-3.8,6-7.2,7.5
			c-3.4,1.5-7.2,1.7-10.4,0.4c-3.2-1.3-5.9-4-7.3-7.4c-1.4-3.4-1.5-7.2-0.1-10.4c2.4-5.6,9.8-10.7,20.7-9.4
			c15,1.8,27.5,15,27.3,28.9c-0.1,5.4-2.3,12.2-8.3,15.2C669.2,466,666,466.2,663.2,466.2z"/>
	</g>
	<g>
		<path d="M559.4,552.7c-3.1,0-6.1-0.4-9.2-1.4c-17.3-5.6-25.3-25.2-25.5-41.1c-0.2-18.6,7.9-37.2,21.7-49.8c0.4-0.3,0.8-0.7,1.1-1
			c2.2-1.9,4.2-3.7,5.3-6.1c1.6-3.3,1.2-7.4,0.6-10.9c-1.8-11.3-5.7-20.2-11.5-26.5c-6.9-7.4-17.2-10.7-25.5-8.3
			c-4.6,1.4-8.7,4.9-11,9.4c-2,3.9-2.4,8-1.1,11.7c1.4,4.1,5.6,7.2,10.5,8c4.3,0.7,8.2-0.6,10.4-3.5c0.7-0.9,1.9-1,2.8-0.4
			c0.9,0.7,1,1.9,0.4,2.8c-3.1,4-8.5,5.9-14.2,5c-6.4-1-11.8-5.2-13.7-10.7c-1.7-4.7-1.2-9.9,1.3-14.8c2.8-5.5,7.8-9.8,13.5-11.4
			c9.8-2.9,21.6,0.9,29.6,9.4c6.4,6.8,10.6,16.4,12.5,28.5c0.7,4.2,1.1,9.1-1,13.3c-1.5,3-3.9,5.2-6.3,7.3c-0.4,0.3-0.7,0.7-1.1,1
			c-12.9,11.8-20.6,29.3-20.4,46.8c0.1,14.5,7.3,32.3,22.7,37.3c10.7,3.4,26.6-0.5,36.5-14.6c3.2-4.5,5.1-9.1,5.7-13.5
			c1.4-10.1-4.1-20.7-13.2-25.2c-9.1-4.5-20.9-2.6-28.1,4.6c-3,3-5.9,8.2-4.4,12.9c0.7,2.1,2.2,4,4.7,6.1c3.9,3.2,9.9,5.9,14.9,3.6
			c2.3-1,4-3.8,4.2-6.6c0.1-1.2-0.1-3.4-2.1-4.6c-0.9-0.6-1.3-1.8-0.7-2.7c0.6-0.9,1.8-1.3,2.7-0.7c2.8,1.7,4.2,4.7,4,8.3
			c-0.3,4.4-2.9,8.4-6.5,10c-6.7,3-14.3-0.2-19.1-4.1c-3-2.5-5-5.1-5.9-7.9c-2.1-6.5,1.3-13,5.3-17c8.4-8.4,22.1-10.6,32.7-5.4
			c10.6,5.3,17.1,17.7,15.4,29.4c-0.7,5.1-2.9,10.2-6.4,15.3C584.5,544.7,572.2,552.7,559.4,552.7z"/>
	</g>
	<g>
		<path d="M648.8,507c-9.2,0-17.8-4.6-23.8-8.3c-25.2-15.5-45.3-39.1-56.6-66.5c-0.4-1,0.1-2.2,1.1-2.6c1-0.4,2.2,0.1,2.6,1.1
			c11,26.6,30.5,49.6,55,64.6c6.4,4,16.1,9,25.5,7.3c4.7-0.8,9.3-4.1,11.7-8.4c1.8-3.2,2.1-6.6,1-9.5c-1.7-4.3-6.5-7.1-11.1-6.6
			c-4.5,0.6-8.5,4.6-9.1,9.1c-0.1,1.1-1.1,1.9-2.2,1.7c-1.1-0.1-1.9-1.1-1.7-2.2c0.8-6.4,6.2-11.8,12.6-12.6
			c6.4-0.8,13,3.1,15.3,9.1c1.6,4.1,1.2,8.7-1.2,12.9c-3,5.4-8.5,9.4-14.5,10.4C651.8,506.9,650.3,507,648.8,507z"/>
	</g>
</g>
</svg>
